<svg xmlns="http://www.w3.org/2000/svg" viewBox="0 0 418 800" width="418" height="800"><path fill="#4F6E88" d="M189.5 753.6L188.2 752.9L186.3 753.1L184.4 753.3L183.5 752.4L182.6 751.4L182.8 748.4C183.1 744.9 183.1 743.3 182.8 731.5L182.6 722.5L182.1 722.1L181.6 721.7L180.8 722.0L180 722.3L130 722.3L80.1 722.3L79.6 721.8L79.2 721.3L79.7 721.0C80 720.8 85.5 720.7 91.9 720.7L103.7 720.7L103.7 720.2C103.7 720.0 103.5 719.7 103.4 719.5C103.2 719.3 103 718.1 102.9 716.8C102.8 715.5 102.5 714.0 102.2 713.5C101.9 712.9 101.7 712.2 101.7 711.9L101.7 711.3L102.7 710.9L103.7 710.5L103.7 706.3C103.7 648.0 103.9 531.7 104 531.2C104.1 530.9 104.3 530.6 104.5 530.6C104.7 530.6 104.9 530.9 105 531.2C105.1 531.6 105.2 572.0 105.2 621.1L105.3 710.4L105.8 711.1L106.3 711.8L106.2 713.7C106.1 714.7 105.8 716.0 105.5 716.5L105 717.6L105.2 719.1L105.4 720.7L142.5 720.7C164.1 720.7 179.7 720.5 179.8 720.4C179.9 720.2 181 720.1 182.2 720.1L184.5 720.2L184.4 720.8C184.3 721.5 184 738.8 184 743.0C184 744.4 184.1 746.9 184.2 748.6L184.4 751.7L184.8 751.7C185.1 751.7 185.4 751.5 185.5 751.4C185.6 751.2 186.9 751.0 188.5 750.9L191.3 750.7L192.1 750.2C193 749.5 193.1 749.5 194.1 750.5L195.1 751.3L196.9 751.4C200.5 751.4 203.8 751.4 205.2 751.3C205.9 751.3 206.9 751.3 207.3 751.3C207.8 751.3 212.1 751.3 216.9 751.3L225.6 751.3L225.8 750.7C226.1 749.8 226.9 749.6 228.1 750.2C228.7 750.5 230.2 750.8 231.5 750.9C232.8 751.0 234.2 751.2 234.6 751.4C235.6 751.9 235.8 751.6 235.7 750.0C235.7 749.3 235.8 748.4 236 748.0L236.4 747.2L236.9 747.8C237.1 748.2 237.3 749.2 237.3 750.2L237.3 751.9L236.5 752.6L235.7 753.4L233.7 753.1L231.7 752.9L230.8 753.5C230.3 753.8 229.2 754.1 228.4 754.2L226.8 754.3L226.1 753.8L225.4 753.3L209.9 753.3L194.5 753.3L194.1 753.7C193.9 753.9 193 754.2 192.2 754.2L190.7 754.3L189.5 753.6ZM204 748.7C203.5 747.7 203.6 747.0 204.3 745.6C204.7 744.8 204.9 744.0 204.8 743.6C204.7 743.2 204.9 742.6 205.2 742.1C205.5 741.6 205.8 740.6 205.8 739.8L205.9 738.4L206.4 737.8L207 737.2L206.9 736.5C206.6 735.3 208 732.7 209 732.7C210.3 732.7 210.6 735.1 209.5 736.3L208.9 737.0L209.1 738.0L209.3 739.0L208.7 740.3L208 741.5L208.2 742.4L208.4 743.2L207.6 744.1C206.7 745.3 207 745.6 209.7 745.8C211 745.8 212.2 746.1 212.5 746.3C213.2 746.9 213.1 748.2 212.3 748.8L211.5 749.3L207.9 749.3L204.4 749.3L204 748.7ZM236 745.1C235.6 744.3 235.5 739.4 235.9 738.5C236 738.2 236.3 738.0 236.5 738.0C237.2 738.0 237.3 738.8 237.3 741.8L237.3 744.5L236.9 745.2L236.4 745.8L236 745.1ZM236.3 734.5C236.3 734.3 236.3 731.6 236.3 728.5C236.3 722.7 236.3 722.2 235.2 722.0C234.3 721.8 234.7 721.2 235.7 721.3C236.1 721.3 236.5 721.4 236.6 721.5C236.8 721.7 236.7 734.4 236.5 734.6C236.4 734.7 236.3 734.6 236.3 734.5ZM77 720.2C76.9 719.8 76.8 718.8 76.9 718.1L77.1 716.7L76.5 715.8C76.2 715.3 75.9 714.2 75.8 713.4L75.7 711.8L76.2 711.1L76.7 710.4L76.7 553.9L76.7 397.5L77.1 396.8L77.6 396.2L78.1 396.7L78.7 397.2L78.6 551.3C78.6 636.1 78.6 706.0 78.6 706.7C78.7 707.3 78.7 708.5 78.7 709.2C78.7 710.0 78.8 710.7 79 710.7C79.2 710.7 79.5 710.9 79.8 711.2L80.4 711.7L80.2 712.7C80 713.3 79.7 714.1 79.5 714.6C79.2 715.1 79 716.5 79 717.9C79 720.2 78.7 721.0 77.8 721.0C77.5 721.0 77.2 720.6 77 720.2ZM209 717.4C208.9 712.7 208.9 712.2 208.4 712.1C208.2 712.0 208 711.7 208 711.3C208 710.9 208.2 710.3 208.4 710.0L208.8 709.2L208.4 709.1C207.8 708.9 207.9 708.3 208.6 707.6C208.9 707.2 209.1 706.4 209.2 705.6C209.2 703.8 209.8 703.7 209.9 705.5C210 706.2 210.1 707.3 210.1 707.8L210.2 708.8L211 708.8L211.8 708.8L211.9 710.4C212 712.0 211.7 712.4 211 711.5C210.3 710.7 209.9 711.3 210 713.0C210.1 713.8 210.1 715.8 210 717.4L210 720.3L209.5 720.3L209 720.3L209 717.4ZM208.9 703.0C208.6 702.6 209 701.7 209.5 701.7C210 701.7 210.4 702.6 210.1 703.0C210 703.2 209.8 703.3 209.5 703.3C209.2 703.3 209 703.2 208.9 703.0ZM208.4 701.1C208.2 701.0 208 700.5 208 700.0C208 699.5 208.2 699.0 208.4 698.9L208.8 698.8L208.9 695.6L209.1 692.3L208.5 692.1C208.2 692.0 208 691.5 208 691.0L208 690.0L208.6 690.0C209 690.0 209.5 689.8 209.8 689.5C210.1 689.2 210.7 689.0 211.1 689.1L211.8 689.2L211.8 690.0L211.8 690.8L211.1 690.9L210.3 691.0L210.1 691.9C210 692.4 210.1 699.0 210.3 699.9C210.3 700.0 210.6 700.0 211 700.0C211.7 700.0 212.2 700.5 211.8 700.8C211.3 701.0 208.8 701.3 208.4 701.1ZM209 678.7L209 672.7L208.5 672.2C207.8 671.6 207.9 670.1 208.5 669.9C208.8 669.8 209 669.3 209 668.9C208.8 667.5 209 667.0 209.5 667.0C210 667.0 210.2 667.8 210 669.0C210 669.2 210 669.8 210.1 670.2L210.3 671.0L211.2 671.0C212.3 671.0 212.2 671.3 211 672.5L210 673.5L210 679.1L210 684.7L209.5 684.7L209 684.7L209 678.7ZM208.9 665.8C208.7 664.6 209.2 655.7 209.5 655.6L209.8 655.5L210 660.3C210.2 665.6 210.1 666.3 209.5 666.3C209.3 666.3 209 666.1 208.9 665.8ZM209.1 639.7C209 639.2 208.8 637.7 208.9 636.3L209 633.8L208.5 633.1C207.8 632.1 207.9 631.4 208.6 630.7L209.2 630.2L209 627.7C208.9 626.3 208.9 624.8 209.1 624.4L209.4 623.6L209.7 623.9L210.1 624.3L210 627.0C210 628.5 210 629.9 209.9 630.0C209.9 630.8 210.1 631.4 211 632.4C211.5 633.0 212 633.8 212 634.2C212 635.1 211.6 635.2 211 634.5C210.3 633.7 210.1 634.2 210.1 636.6C210.2 637.8 210 639.2 209.8 639.7L209.5 640.6L209.1 639.7ZM209 603.9C208.9 596.9 208.8 595.5 208.6 595.1C208.4 594.8 208.4 594.4 208.5 594.0C208.6 593.6 208.6 593.1 208.4 592.9L208 592.4L208.5 592.0L209 591.6L208.9 588.9L208.9 586.3L208.4 586.1C207.8 585.9 207.9 584.1 208.5 583.9L209 583.7L209 581.3L209 579.0L209.5 579.0L210 579.0L210.1 581.4L210.2 583.8L211 584.0L211.8 584.2L211.8 585.0L211.8 585.8L211 586.0L210.2 586.2L210.1 589.3L210 592.5L211 593.5C212.2 594.7 212.2 595.8 211.1 595.9C210.2 596.1 209.9 596.9 210 598.6C210.1 599.3 210.1 601.7 210 603.9L210 608.0L209.5 608.0L209 608.0L209 603.9ZM208 576.3C208 575.5 208.9 574.0 209.5 574.0C209.7 574.0 210.2 574.4 210.5 574.8L211 575.7L210.2 576.0C209.8 576.2 209.3 576.5 209.2 576.6C208.8 577.3 208 577.0 208 576.3ZM211.2 574.8C211.1 574.7 211 574.2 211 573.8L211 572.9L211.4 573.1C211.9 573.2 212.2 575.0 211.7 575.0C211.6 575.0 211.3 574.9 211.2 574.8ZM208.9 564.9C208.9 557.3 208.8 557.6 209.1 556.9L209.4 556.4L208.7 556.2L208 556.0L208 555.2C208 554.8 208.2 554.2 208.5 554.0L209 553.6L209 548.8L209 544.0L209.5 544.0L210 544.0L210 548.8C209.9 554.0 210 554.6 211.2 555.0L212 555.3L211.9 556.1L211.8 556.8L211 557.0L210.2 557.2L210.1 558.0C210.1 558.5 210.1 561.6 210.1 564.9L210 571.0L209.5 571.0L209 571.0L208.9 564.9ZM98.5 541.6C97.9 541.3 97.1 541.0 96.7 541.0C96.4 541.0 95.9 540.8 95.7 540.5L95.2 540.0L93.5 540.1L91.7 540.3L91 539.8C90.6 539.5 89.7 539.2 89 539.1C88.2 539.1 87.3 538.8 86.9 538.5C86.5 538.2 85.9 538.0 85.6 538.0C85 538.0 84.6 537.2 84.9 536.5C85.1 536.0 85.6 535.9 88 535.9L88.8 535.8L88.8 534.3C88.8 533.4 89 532.5 89.3 532.3L89.7 531.9L92.4 531.9L95 532.0L95.9 532.5C96.3 532.8 97 533.0 97.4 532.9C98.2 532.7 100.9 533.8 101.1 534.6C101.4 535.3 101 535.9 99.9 536.1L98.8 536.3L98 535.7C97.5 535.4 96.6 535.1 95.9 535.1C95.2 535.0 94.3 534.8 93.8 534.5L93 533.9L92.5 534.3C91.3 535.4 92.9 538.0 94.8 538.0C95.3 538.0 96.1 538.2 96.5 538.5L97.3 539.1L98.3 538.9L99.2 538.7L99.9 539.2C102.3 540.9 101.1 543.0 98.5 541.6ZM209.2 528.0C209.1 527.8 209 525.3 208.9 522.5L208.9 517.3L208.4 517.1C207.8 516.9 207.9 515.4 208.5 514.8C208.8 514.5 209 514.0 209 513.6C209 513.2 209.1 512.6 209.3 512.4L209.6 511.9L209.9 513.2C210.1 514.6 210.2 514.9 210.3 515.6C210.3 515.8 210.6 516.0 211 516.0C211.7 516.0 212 516.6 212 518.0C212 519.1 211.6 519.3 211 518.5C210.2 517.6 210.1 518.3 210.1 523.0C210 525.6 209.9 527.9 209.7 528.1L209.4 528.4L209.2 528.0ZM104 527.1L103.7 526.4L103.7 448.1C103.7 405.1 103.7 368.0 103.7 365.7L103.7 361.5L102.7 361.1L101.7 360.7L101.7 360.1C101.7 359.8 101.9 359.1 102.2 358.5C102.5 357.9 102.8 356.5 102.9 355.2C103 353.9 103.2 352.6 103.4 352.3C103.8 351.5 103.7 348.9 103.3 348.4C103.1 348.2 102.9 346.9 102.8 345.5C102.8 344.1 102.6 342.8 102.4 342.6C102.2 342.4 102 341.8 102 341.3L102 340.3L102.8 340.0L103.7 339.7L103.7 337.1C103.7 335.7 103.7 330.2 103.8 325.0C103.9 319.8 104 314.3 104 312.8C104 311.4 103.9 297.1 103.9 281.2L103.8 252.2L104.5 252.2L105.2 252.2L105.1 281.2C105.1 297.1 105 311.4 105 312.8C105 314.3 105.1 320.9 105.2 327.4L105.3 339.4L105.8 340.1L106.3 340.8L106.2 343.1L106.1 345.3L105.6 345.9L105 346.6L105.2 348.1L105.4 349.7L106.3 349.7C106.8 349.7 118.9 349.7 133.3 349.7L159.4 349.6L159.9 350.0L160.3 350.4L160.3 365.5L160.3 380.7L161.6 380.7C162.3 380.7 163.3 380.5 163.8 380.2C164.3 380.0 165.8 379.7 167.1 379.7L169.6 379.7L170 380.2L170.4 380.7L182 380.7L193.5 380.7L194.2 381.1L194.8 381.6L194.1 382.0L193.4 382.3L182 382.3L170.6 382.3L169.8 383.0L168.9 383.7L167.9 383.5C167.3 383.4 165.9 383.3 164.7 383.2C163.5 383.1 162.4 382.8 162.2 382.7C162 382.5 161.4 382.3 160.9 382.3C160.4 382.3 159.7 382.2 159.3 382.0L158.7 381.6L158.7 366.5L158.7 351.4L132.9 351.3C118.8 351.2 106.8 351.2 106.3 351.3L105.4 351.4L105.2 352.9L105 354.4L105.5 355.5C105.8 356.0 106.1 357.3 106.2 358.3L106.3 360.2L105.8 360.9L105.3 361.6L105.3 444.1L105.3 526.5L104.9 527.2L104.4 527.8L104 527.1ZM209.2 495.0C209.1 494.8 209 491.9 209 488.4C209 485.0 209.1 481.9 209 481.7C209 481.4 209 480.5 208.9 479.7C208.9 478.9 208.6 478.2 208.4 478.1C207.8 477.9 207.9 476.1 208.5 475.9L209 475.7L209 471.9C209 469.8 209.1 467.8 209.2 467.5L209.4 467.0L209.8 467.3L210.3 467.7L210.1 471.9L209.9 476.2L211 477.3C211.5 478.0 212 478.8 212 479.2C212 480.1 211.6 480.2 211 479.5C210.5 478.9 210 479.2 210 480.1C210 480.5 210 481.1 210 481.5C209.9 481.9 209.9 484.9 210 488.2C210 491.6 209.9 494.6 209.7 494.9L209.4 495.4L209.2 495.0ZM209.4 440.0L208 438.6L208.1 437.9C208.1 437.5 208.4 437.1 208.8 436.9L209.4 436.5L210 437.3C210.4 437.8 211 438.5 211.3 438.9C211.7 439.3 212 440.0 212 440.5L212 441.3L211.4 441.3C211 441.3 210.1 440.7 209.4 440.0ZM210.2 401.7C209 400.4 208.9 400.0 210.1 400.0C210.9 400.0 212 401.2 212 402.2C212 403.3 211.7 403.2 210.2 401.7ZM72.2 395.1C71.8 395.0 71.2 394.7 70.8 394.4C70.3 394.2 69.8 394.0 69.5 394.1C69.2 394.2 68.3 394.0 67.5 393.7C66.7 393.3 65.8 393.1 65.5 393.2C65.2 393.3 64.5 393.1 64 392.7C63.4 392.3 62.7 392.0 62.4 392.1C61.8 392.4 59.1 391.1 58.9 390.4C58.3 389.0 60 388.6 62 389.5L63.1 390.1L64 389.8L64.8 389.5L64.9 387.5L64.9 385.5L64.1 384.7L63.3 383.9L62.5 384.1L61.7 384.3L60.9 383.7C60.4 383.3 59.8 383.0 59.6 383.0C59 383.0 58.6 382.2 58.9 381.5L59.1 381.0L60.5 381.0C61.3 381.0 62 381.2 62.1 381.4C62.2 381.6 62.9 381.8 64 381.9C64.9 381.9 65.8 382.1 66 382.3C66.1 382.5 66.8 382.7 67.6 382.8C68.3 382.9 69.3 383.2 69.8 383.5L70.7 384.1L71.4 383.9C71.9 383.8 72.5 383.9 72.9 384.2C73.2 384.4 73.7 384.7 74 384.7C74.3 384.7 74.7 384.9 74.9 385.1L75.3 385.5L74.8 386.2C74.1 387.2 73 387.3 71.7 386.6L70.6 385.9L69.2 386.1L67.8 386.4L67.8 388.4L67.8 390.4L69 391.2L70.3 392.1L71.3 391.9L72.3 391.7L73.1 392.3C73.5 392.6 74.1 393.0 74.5 393.0L75.2 393.2L75.2 394.0L75.2 394.8L74 395.0C73.4 395.1 72.5 395.1 72.2 395.1ZM76.9 394.8C76.8 394.7 76.7 320.5 76.7 230.1L76.7 65.6L76.3 65.1C75.6 64.3 75.7 62.0 76.3 60.7L76.9 59.5L76.9 56.9C76.9 55.5 77 54.3 77.1 54.2C77.2 54.0 205.1 53.9 213.2 54.0C213.7 54.0 214 54.2 214 54.5C214 54.8 213.7 55.0 213.2 55.0C212.8 55.0 182.4 55.1 145.6 55.1C108.8 55.1 78.6 55.3 78.5 55.4C78.4 55.5 78.5 56.1 78.8 56.7C79.1 57.3 79.2 58.3 79.1 59.0L78.9 60.3L79.4 61.3C79.7 61.9 80 62.8 80.2 63.3L80.4 64.3L79.5 65.0L78.7 65.8L78.7 225.5C78.7 313.4 78.6 385.7 78.5 386.3C78.3 386.9 78.4 387.5 78.6 387.7C79 388.3 78.8 392.9 78.4 394.1C78 395.0 77.4 395.3 76.9 394.8ZM200.6 385.1C200.3 385.0 200 384.7 200 384.3C200 383.3 199.4 382.3 198.7 382.3C197.7 382.3 197 382.0 197 381.5C197 381.0 197.7 380.7 198.7 380.7C199.4 380.7 199.7 380.2 199.9 378.9C200 377.9 200.9 376.3 201.4 376.3C201.8 376.3 202.3 377.5 202.2 378.5L202.2 379.5L203.9 379.7C204.9 379.8 205.9 380.1 206.1 380.3C206.3 380.4 207.1 380.7 207.9 380.8L209.2 380.9L210.2 380.0C211.5 378.8 212.4 378.5 213.2 379.2L213.8 379.7L213.1 379.9C212.7 380.0 212.3 380.2 212.3 380.4C212.3 381.0 213.1 381.0 214.5 380.3C215.4 379.9 216.3 379.7 216.5 379.8C217.2 380.1 217.7 379.4 217.9 378.0C218 376.4 218.9 374.9 219.6 375.1L220.2 375.2L220.2 377.4L220.2 379.6L220.6 380.1L221.1 380.7L235.2 380.7L249.4 380.7L250.1 380.2L250.8 379.7L253.4 379.8C254.9 379.8 256.2 380.0 256.4 380.3C256.6 380.5 257.4 380.7 258.2 380.7L259.7 380.7L259.7 379.4C259.7 378.7 259.7 372.5 259.7 365.6C259.6 353.0 259.7 352.0 260.5 352.0C261.3 352.0 261.3 353.0 261.3 367.2L261.3 381.3L260.8 381.8C260.5 382.1 259.8 382.3 259.2 382.3C258.6 382.3 258 382.5 257.8 382.7C257.6 382.9 256.3 383.1 254.8 383.2C253.4 383.3 252 383.5 251.8 383.7C251.3 384.1 250.4 383.7 250 383.0L249.6 382.3L235.4 382.3L221.1 382.3L220.6 382.9C220.3 383.2 220 383.8 219.9 384.2L219.8 384.8L218.8 384.8L217.8 384.8L217.8 384.2L217.8 383.5L216.1 383.3C215.2 383.2 214.2 382.9 213.8 382.8C213.5 382.6 212.6 382.3 212 382.2L210.8 382.1L209.8 383.0C209.3 383.4 208.4 384.2 207.9 384.6C206.5 385.6 205.3 385.0 206.5 383.8C207 383.2 206.9 382.5 206.3 382.9C206.1 383.0 205.1 383.2 204 383.3L202.2 383.5L202.1 384.2C202 385.0 201.5 385.3 200.6 385.1ZM168 377.7L167.6 377.0L168 376.4C168.5 375.5 174.3 370.0 174.8 370.0C175.3 370.0 176.7 368.6 176.7 368.1C176.7 367.9 177 367.4 177.4 366.9L178.1 366.0L177.6 365.5L177.2 365.0L176 365.0C174.6 365.1 174 365.5 174 366.4C174 366.7 173.6 367.2 173.2 367.4L172.4 367.7L171.7 367.4C170.9 366.9 170.8 366.3 171.5 365.7C171.8 365.4 172 365.1 172 364.9C172 364.4 173.4 363.0 173.8 363.0C173.9 363.0 174.4 362.7 174.8 362.4C175.2 362.1 176 361.8 176.5 361.9C177.1 361.9 177.7 362.0 178 362.0C178.3 362.0 178.9 362.4 179.4 362.8L180.2 363.6L180.2 365.6L180.1 367.7L179.6 368.3C179.3 368.6 179 369.1 178.9 369.5C178.9 369.9 177.9 370.9 176.7 371.8C173.5 374.1 172.9 374.6 173.2 375.0L173.4 375.4L175 375.2L176.6 375.0L177 375.6C177.4 376.5 177.4 377.6 177 377.8C176.8 377.9 174.8 378.1 172.5 378.2L168.4 378.4L168 377.7ZM184.7 377.5L183.8 376.7L183.8 374.0L183.9 371.3L184.4 370.8C184.6 370.5 184.8 369.8 184.9 369.2C184.9 368.6 185.3 367.4 185.9 366.5C186.5 365.7 187 364.8 187 364.6C187 364.2 188.2 363.0 188.7 362.9C189 362.8 189.5 362.6 190 362.2C191.5 361.2 192.9 361.7 194.4 363.7L195.1 364.7L194.7 365.1C194.5 365.3 194.3 365.7 194.3 366.1C194.3 366.4 194.1 366.8 193.7 367.0L193.1 367.3L192.6 367.0C192.3 366.8 192 366.3 191.9 365.8L191.7 365.0L190.6 365.1C189.6 365.2 188.4 366.4 188.3 367.2C188.3 367.9 189 368.1 189.8 367.5L190.6 367.0L191.9 368.3L193.2 369.5L193.1 371.6L193.1 373.7L192.5 374.3C192.2 374.6 192 375.1 192 375.3C192 375.5 191.5 376.2 190.9 376.9L189.8 378.0L187.7 378.1L185.6 378.2L184.7 377.5ZM222.4 378.0C221 377.5 221.7 376.5 226.3 371.8L231 367.2L230.9 366.2L230.8 365.2L229.9 365.1L228.9 364.9L228 365.9C227.4 366.4 227 367.0 227 367.2C227 367.9 226.2 367.8 225.4 367.0C224.4 366.1 224.5 366.0 225.9 364.4C227.1 362.9 229.4 361.7 230.7 361.7C231.6 361.7 234.3 364.3 234.3 365.3C234.3 366.7 232.6 369.3 229.8 372.0C228.3 373.5 227 374.8 227 375.0L227 375.4L228.3 375.2L229.6 375.0L230.5 375.7L231.4 376.5L231.2 377.3L231 378.0L228.4 378.1C227 378.1 225.2 378.1 224.5 378.2C223.7 378.2 222.8 378.1 222.4 378.0ZM239 378.0L238.2 377.8L237.7 376.1L237.1 374.5L237.6 373.5C237.8 372.9 237.9 372.1 237.8 371.6C237.7 371.1 237.8 370.2 238.2 369.6C238.5 369.0 238.8 368.2 238.8 367.9C238.9 367.5 239.2 367.0 239.5 366.7C239.8 366.4 240 365.9 240 365.6C240 364.5 244.2 361.7 245.8 361.7C246.1 361.7 246.8 362.1 247.3 362.6L248.3 363.6L248.2 365.2C248.1 366.0 247.9 366.9 247.6 367.0C246.9 367.5 246.2 367.2 246.1 366.5C245.7 364.8 244.3 364.5 242.9 365.9C241.8 367.1 241.7 367.7 242.8 367.7C244.6 367.5 245.4 367.7 246.3 368.6L247.3 369.6L247.2 371.1C247.2 372.0 246.9 372.9 246.6 373.3C246.3 373.6 246 374.1 246 374.4C246 374.7 245.8 375.1 245.5 375.3C245.2 375.6 245 376.0 245 376.3C245 376.6 244.7 377.2 244.4 377.5L243.7 378.1L241.7 378.1C240.6 378.1 239.4 378.1 239 378.0ZM178.9 377.8C178.8 377.7 178.7 377.3 178.7 376.9L178.7 376.3L179.8 375.8C181.7 374.9 182.8 375.9 181.3 377.3C180.7 378.0 179.3 378.2 178.9 377.8ZM232.9 377.8C232.4 377.3 232.7 376.4 233.7 375.7C234.9 374.8 235.4 375.0 235.2 376.4C235.1 377.0 235 377.6 235 377.8C235 378.1 233.2 378.1 232.9 377.8ZM189.1 375.1C189.6 374.6 190 374.0 190 373.8C190 373.6 190.2 373.2 190.5 373.0C190.8 372.8 191 372.3 191 372.0C191 371.3 189.9 370.0 189.4 370.0C188.9 370.0 187 371.8 187 372.3C187 372.6 186.7 373.1 186.4 373.4L185.9 374.0L186.8 375.0C188 376.2 187.9 376.2 189.1 375.1ZM241.9 375.8C242.9 375.5 243.7 374.2 243.9 372.4L244 370.8L243.5 370.4L243 369.9L242.2 370.6C240.7 371.7 240.1 372.8 240.1 374.0C240.1 375.7 240.5 376.2 241.9 375.8ZM208.6 372.0L208 371.6L208.4 371.1C209 370.3 213 370.6 213 371.5C213 372.3 209.7 372.6 208.6 372.0ZM202.5 371.6C202.2 371.1 202.5 370.9 203.2 371.1C203.5 371.2 203.6 371.5 203.5 371.7C203.2 372.1 202.8 372.1 202.5 371.6ZM201.2 370.3C200.9 369.9 201.3 369.3 201.7 369.5C202.1 369.8 202.1 370.7 201.7 370.7C201.5 370.7 201.3 370.5 201.2 370.3ZM210 363.4C208 361.1 207.5 359.0 209 359.0L209.7 359.0L210.1 359.9C210.3 360.4 210.8 361.2 211.3 361.7L212.1 362.6L211.9 363.4C211.8 364.5 211 364.5 210 363.4ZM208.9 332.0C208.6 331.8 208.3 331.3 208.3 330.8L208.3 330.0L209.2 330.0C210.5 329.9 211.1 330.0 211.5 330.4L211.8 330.6L210.9 331.5C209.9 332.4 209.7 332.5 208.9 332.0ZM210.3 324.6C209.6 323.8 208.9 322.8 208.6 322.3L208 321.4L208.4 321.0C208.9 320.6 210 320.5 210 321.0C210 321.2 210.4 321.8 211 322.4L212 323.6L212 324.8C212 326.4 211.6 326.3 210.3 324.6ZM96.4 309.6C96.2 309.4 95.2 309.2 94.2 309.1L92.3 309.1L91.7 308.5C91.3 308.2 90.8 308.0 90.4 308.1L89.8 308.3L88.9 307.7C88.4 307.3 87.9 307.0 87.7 307.0C86.7 307.0 84.9 303.9 84.8 301.9L84.7 300.6L85.7 299.6C86.2 299.1 86.8 298.7 87.1 298.7C88.1 298.7 89.3 299.3 89.7 300.0L90 300.7L89.4 300.9C89.1 301.0 88.4 301.5 87.9 301.9L87 302.8L87.9 303.7C88.4 304.2 89.1 304.7 89.4 304.7L90.1 304.7L89.8 303.7L89.6 302.8L90.4 301.9C90.8 301.4 91.8 300.7 92.6 300.3L94 299.6L95.3 300.3C96.1 300.7 97 301.0 97.3 301.0C98 301.0 101 303.8 101 304.4C101.4 307.5 100.9 308.4 98.8 309.4C97 310.1 96.9 310.1 96.4 309.6ZM98.7 306.2L99 305.8L97.6 304.4L96.2 303.0L94.7 303.3L93.2 303.5L93.1 304.4L93 305.3L94.2 306.2L95.5 307.0L97 306.9C97.8 306.7 98.6 306.5 98.7 306.2ZM209.5 302.7C209.4 302.5 209.6 302.2 209.8 302.0C210.1 301.8 210.3 301.3 210.3 301.0C210.3 300.4 213.6 297.0 213.7 297.5C213.9 298.8 213.4 299.7 211.9 301.2C210.2 303.0 209.8 303.2 209.5 302.7ZM98.2 299.8C97.3 298.9 97.8 296.7 98.9 296.7C99.4 296.7 101.3 298.4 101.3 298.9C101.3 299.5 100.8 299.9 99.8 300.1L98.7 300.4L98.2 299.8ZM93.4 294.6C92.7 294.3 91.8 294.0 91.3 294.0C90.8 294.0 90.3 293.8 90.1 293.7C89.9 293.5 89.4 293.2 89 293.2C88.5 293.1 87.4 292.3 86.6 291.4L84.9 289.7L84.8 288.2L84.7 286.6L85.6 285.6L86.6 284.7L89.7 284.9C91.5 285.0 93.1 285.3 93.5 285.5C93.9 285.8 94.6 286.0 95.1 286.0C96.2 286.0 98.1 287.2 99.8 288.9L101.1 290.3L101.2 291.8L101.3 293.3L100.4 294.3L99.6 295.2L97.1 295.2L94.6 295.2L93.4 294.6ZM97.9 292.4C98.3 292.0 98.7 291.6 98.7 291.4C98.6 290.8 97 289.3 96.1 289.1C95.6 289.0 95 288.7 94.7 288.4C94.5 288.2 93.8 288.0 93.2 288.0C92.6 288.0 92 287.8 91.9 287.6C91.6 286.5 87.3 287.3 87.4 288.4C87.4 289.0 90 291.0 90.7 291.0C91.1 291.0 91.7 291.2 92.1 291.5C92.5 291.7 93.3 291.9 93.9 291.9C94.5 291.9 95.3 292.2 95.7 292.5C96.7 293.1 97 293.1 97.9 292.4ZM218.2 266.6L218 265.7L217.1 265.3C216.6 265.1 215.8 264.8 215.3 264.6L214.5 264.1L211.7 264.2C208.6 264.3 208.8 264.2 208.1 265.7L207.5 266.8L206.4 266.9L205.3 267.0L205.3 266.6C205.3 266.3 205.7 265.9 206.2 265.7C206.6 265.5 207 265.1 207 264.8L207 264.3L206.1 264.3C205.5 264.3 204.6 264.6 204 264.9C203.5 265.2 202.7 265.3 202.4 265.2C202.1 265.1 201.6 265.2 201.1 265.5L200.3 266.0L199.9 265.2L199.6 264.3L196.7 264.3C195.1 264.3 190 264.1 185.4 264.0L177 263.8L176.9 263.5L176.8 263.2L188.1 262.9C194.4 262.8 199.5 262.6 199.6 262.6C199.6 262.5 199.8 261.7 199.9 260.7L200.2 258.9L200.7 258.5L201.3 258.2L201.7 258.6C201.9 258.8 202.2 259.5 202.3 260.2L202.5 261.5L203.3 261.7C203.8 261.8 204.9 262.0 205.8 262.0C206.8 262.0 207.7 262.2 208 262.3L208.5 262.6L210.3 260.9L212.2 259.1L213.4 258.9L214.7 258.6L214.9 259.2L215.1 259.8L214.2 260.5C213 261.6 213.1 262.0 214.8 261.8C215.5 261.8 216.5 261.7 216.9 261.7L217.7 261.7L217.7 260.7C217.7 259.8 218.4 258.7 218.9 258.7C219.5 258.7 219.9 259.3 220.2 260.8L220.5 262.5L221.7 262.7C222.3 262.9 228.8 263.0 236.2 263.0C243.5 262.9 249.7 262.9 250 262.9C250.3 262.9 252.8 262.9 255.5 262.8L260.5 262.6L261.1 263.1L261.8 263.6L261.1 264.0L260.3 264.4L255.4 264.2C252.7 264.1 250.3 264.1 250 264.1C249.7 264.1 243.5 264.1 236.2 264.0C228.8 264.0 222.3 264.1 221.7 264.3L220.5 264.5L220.2 265.5C220 266.1 219.6 266.8 219.2 267.1L218.4 267.6L218.2 266.6ZM133.4 264.7L132.5 264.2L129.9 264.2L127.3 264.2L127 263.7C126.8 263.4 126.7 258.6 126.8 251.7L126.8 240.2L127.5 240.2L128.2 240.2L128.3 251.4L128.3 262.7L129 262.7C129.3 262.7 129.7 262.5 129.8 262.4C129.9 262.2 131.2 262.0 132.7 261.9C134.2 261.7 135.7 261.4 136.1 261.1C137.1 260.5 138 260.8 138 261.7C138 262.1 138.2 262.4 138.4 262.5C138.8 262.6 155.7 263.1 158.6 263.1L159.7 263.0L159.6 263.4C159.4 263.9 159.7 263.9 148 264.2L138.5 264.4L138 264.8C137.3 265.4 134.6 265.4 133.4 264.7ZM282 264.8L281.6 264.3L275.4 264.3C271.9 264.3 268.6 264.2 267.8 263.9L266.2 263.6L267 263.2C267.5 263.0 271 262.8 274.8 262.7L281.8 262.5L281.9 261.8C282.1 260.8 282.9 260.6 284.1 261.2C284.6 261.4 286.2 261.7 287.6 261.9C289 262.0 290.3 262.2 290.6 262.4C290.8 262.6 291.2 262.7 291.4 262.6L291.8 262.5L291.7 261.1C291.7 260.3 291.8 259.4 292 259.0L292.4 258.2L292.9 258.8C293.1 259.2 293.3 260.3 293.3 261.2L293.3 263.0L292.6 263.7L291.9 264.4L290.2 264.2L288.5 264.0L287.5 264.5C287 264.8 285.6 265.1 284.5 265.2L282.4 265.3L282 264.8ZM162.2 264.0C160.9 263.8 160.9 263.2 162.2 263.0C163.5 262.7 171.1 262.6 171.8 262.9C172.5 263.1 172.5 263.9 171.8 264.1C171.1 264.4 163.5 264.3 162.2 264.0ZM152.2 259.8L151.7 259.3L151.9 258.1L152.1 256.8L151.6 256.5C151.4 256.3 150.3 256.2 149.2 256.2L147.3 256.1L147 255.7C146.5 254.8 146.8 254.3 149.9 251.2C150.3 250.8 150.7 250.2 150.8 249.8C150.9 249.5 152.2 248.0 153.7 246.5L156.3 243.8L156.9 244.2C157.2 244.4 157.6 244.8 157.8 245.1L158.1 245.6L157.6 246.2L157 246.9L157.2 247.6C157.3 248.0 157.1 248.9 156.7 249.7C156.3 250.4 156.1 251.3 156.2 251.7C156.3 252.0 156.1 252.5 155.8 252.8C155.6 253.1 155.3 253.5 155.3 253.7L155.3 254.0L156 253.8L156.7 253.6L156.9 254.1C157.1 254.8 156.5 255.6 155.1 256.2L154 256.6L154 257.4C154.2 258.9 154 259.7 153.4 260.0L152.7 260.3L152.2 259.8ZM157.4 260.0C156.5 259.6 156.5 259.1 157.2 258.1C157.9 257.1 158.8 256.6 159.5 256.9L160 257.1L160 258.5L160 259.9L159.2 260.1C158.3 260.4 158.4 260.4 157.4 260.0ZM161.2 260.1C161.1 260.0 161 259.5 161 259.0L161 258.1L162.2 257.0C162.9 256.4 163.6 255.4 163.9 254.9C164.1 254.4 164.5 254.0 164.8 254.0C165 254.0 166.2 252.9 167.6 251.6L170 249.2L170 247.8L170 246.3L169.5 246.3C169.2 246.3 169 246.5 169 246.7C169 246.8 168.6 247.1 168.1 247.2C167.7 247.3 167.2 247.8 167 248.2L166.7 248.9L165.7 249.1C164.3 249.4 164 249.2 164 248.1L164 247.3L165.7 245.7L167.3 244.0L168.7 243.9C169.5 243.9 170.5 243.9 170.8 243.9C171.7 244.0 172.9 245.6 173.2 246.9L173.4 247.9L172.7 249.4C172 251.0 171 252.1 167.7 255.1C166.8 256.0 166 256.8 166 257.0C166 257.2 166.8 257.2 167.9 257.2L169.7 257.1L170 257.9C170.2 258.4 170.3 259.0 170.2 259.4L170 260.0L168.9 260.0C168.3 260.0 166.4 260.1 164.6 260.2C162.8 260.2 161.3 260.2 161.2 260.1ZM243.3 260.0L242.7 259.6L242.9 258.2L243.1 256.8L242.7 256.5C242.4 256.4 241.4 256.2 240.3 256.2L238.3 256.1L238 255.6C237.5 254.9 237.6 254.8 239.7 252.5C240.8 251.3 242 249.9 242.2 249.4C242.5 248.9 243.7 247.5 244.9 246.2L247.1 244.0L247.9 244.0L248.7 244.0L248.9 244.8C249 245.3 248.9 245.9 248.7 246.1C248.5 246.4 248.3 247.3 248.2 248.1C248.2 249.0 247.9 249.9 247.6 250.2C247.3 250.6 247.1 251.5 247.1 252.3L247 253.7L247.5 253.9C248.5 254.3 248.4 256.0 247.4 256.0C247 256.0 246.4 256.4 245.9 257.0L244.9 257.9L245.1 258.6L245.4 259.3L244.8 259.8C244.2 260.4 244 260.4 243.3 260.0ZM248.1 259.9C247.9 259.2 248.9 257.1 249.6 256.8C249.8 256.7 250.3 256.8 250.7 257.0L251.3 257.3L251.1 258.6C250.9 260.1 251 260.0 249.5 260.2L248.3 260.4L248.1 259.9ZM252.6 260.1L252 260.0L252 259.1L252 258.3L254.8 255.5C256.3 253.9 258.3 252.1 259.2 251.5L261 250.3L261 249.5C261 249.1 261.1 248.6 261.3 248.5C261.9 248.2 261.7 247.3 261.1 246.8L260.5 246.4L259.8 246.9C259.3 247.2 259 247.3 259 247.2C259 247.0 258.8 247.1 258.5 247.3C258.2 247.6 258 248.0 258 248.3C258 249.1 257.2 249.4 256.1 249.0L255.3 248.7L255.5 248.1C255.6 247.8 255.8 247.2 255.9 246.8C256 246.1 257 245.0 257.7 244.9C258 244.8 258.5 244.6 258.8 244.4C259.1 244.2 260 243.9 260.9 243.8L262.4 243.7L263.3 244.6L264.3 245.5L264.1 247.6L264 249.6L262.6 251.2C261 253.0 259.2 254.8 257.9 255.9C256.6 257.0 256.8 257.3 258.6 257.2C259.5 257.1 260.4 257.2 260.6 257.3C261.1 257.6 261.4 259.1 261.1 259.6L260.8 260.0L257 260.1C254.9 260.2 252.9 260.2 252.6 260.1ZM292 256.2L291.6 255.7L291.8 247.1C292 236.6 292.1 234.7 292.5 234.7C292.9 234.7 293 236.6 293.2 247.2L293.4 255.9L292.9 256.3L292.4 256.7L292 256.2ZM208.5 253.9C208.2 253.7 208 253.2 208.1 252.8L208.2 252.2L210 252.2L211.8 252.2L211.9 252.8C212.1 253.6 211.8 253.9 210.3 254.1L209.1 254.3L208.5 253.9ZM152.8 252.8C152.9 252.3 153.1 251.7 153.4 251.4C154.1 250.7 154.2 250.3 153.7 250.3C153.3 250.3 150.7 253.0 150.7 253.4C150.7 253.6 151.1 253.7 151.7 253.6L152.8 253.5L152.8 252.8ZM243.9 252.8C244 252.4 244.3 251.9 244.5 251.7C245.1 251.2 245.2 250.3 244.6 250.4C244 250.4 242 253.0 242.2 253.4C242.3 253.6 242.7 253.7 243.1 253.6L243.8 253.5L243.9 252.8ZM103.9 245.8C103.8 245.7 103.7 245.0 103.7 244.4L103.7 243.3L103 243.1C102 242.8 101.5 240.5 102.4 239.9C102.6 239.8 102.8 238.6 102.9 237.3C102.9 236.0 103.1 234.8 103.3 234.6C103.8 234.1 103.8 230.9 103.3 230.4C103.1 230.3 102.9 228.9 102.8 227.4C102.7 225.7 102.4 224.3 102.2 223.9C101.5 222.9 101.8 222.1 102.9 221.9L103.7 221.7L103.7 218.5C103.7 214.9 103.9 213.3 104.5 213.3C105.1 213.3 105.3 214.9 105.3 218.5L105.3 221.5L105.7 221.9C106 222.2 106.2 223.2 106.2 224.3L106.2 226.2L105.6 227.4L105 228.5L105.2 230.1L105.4 231.7L106 231.7C106.3 231.7 106.7 231.9 107 232.1L107.3 232.5L106.9 232.9C106.7 233.2 106.3 233.3 106 233.3L105.4 233.3L105.2 234.9L105 236.4L105.6 237.1L106.1 237.7L106.2 239.9L106.3 242.2L105.8 242.9C105.6 243.3 105.3 244.1 105.3 244.7L105.2 245.8L104.7 245.9C104.4 246.0 104 245.9 103.9 245.8ZM210.3 245.0C208.8 244.0 208 242.6 208 241.3C208 239.4 210 239.9 210.5 242.0C210.6 242.5 211 243.0 211.4 243.1L212 243.3L212 244.4C212 246.0 211.7 246.1 210.3 245.0ZM126.9 237.5C126.8 237.2 126.7 236.1 126.7 235.1L126.7 233.3L118.1 233.3L109.5 233.3L109.1 232.9L108.7 232.5L109 232.1L109.4 231.7L118.4 231.7L127.3 231.7L127.8 232.2L128.3 232.7L128.3 234.8C128.3 237.2 128.1 238.0 127.5 238.0C127.3 238.0 127 237.8 126.9 237.5ZM209.2 237.3C209.1 236.9 209.2 236.2 209.4 235.6C209.7 234.3 209.5 233.4 208.6 233.2C207.8 232.9 207.8 231.9 208.7 231.2L209.3 230.6L210.2 230.8C211.5 231.1 212 231.6 212 232.4C212 233.1 211.7 233.2 210.9 232.5L210.3 231.9L209.8 232.3C209.2 232.9 209.2 233.3 209.8 233.3L210.3 233.3L210.5 235.2C210.6 236.2 210.7 237.2 210.5 237.5C210.3 238.2 209.4 238.1 209.2 237.3ZM208 224.7L208 223.4L209.1 222.3C209.7 221.6 210.3 220.9 210.4 220.6C210.7 219.8 211.8 220.0 211.9 220.9C212 221.2 211.7 221.9 211.4 222.3C211 222.7 210.6 223.4 210.5 223.8C210.2 224.7 209 226.0 208.4 226.0L208 226.0L208 224.7ZM208.1 213.5C208 213.2 208 212.8 208.1 212.5L208.3 212.0L210.1 212.1L211.8 212.2L211.8 213.0L211.8 213.8L210.1 213.9L208.3 214.0L208.1 213.5ZM103.9 211.9C103.8 211.5 103.7 192.3 103.7 169.2L103.7 127.2L102.7 126.3C101.5 125.2 101.5 124.9 102.2 124.2L102.7 123.6L102.9 121.1C103 119.7 103.2 118.4 103.4 118.2C103.5 118.0 103.7 117.5 103.7 117.0C103.7 115.6 104 115.0 104.7 115.0C105.5 115.0 105.8 116.0 105.3 117.8L105 119.3L105.6 120.2L106.1 121.1L106.1 123.9L106.2 126.7L105.7 126.9L105.3 127.2L105.3 169.2C105.3 192.3 105.2 211.5 105.1 211.9C105 212.3 104.7 212.7 104.5 212.7C104.3 212.7 104 212.3 103.9 211.9ZM94 199.8C93.7 199.5 93.1 199.3 92.5 199.3C91.1 199.3 87.5 197.4 86.1 195.9L84.8 194.5L84.9 192.4C84.9 191.2 85 190.2 85.1 190.2C85.1 190.1 85.9 189.9 86.7 189.6L88.3 189.1L89.1 189.6C90.5 190.3 90 191.5 87.9 192.3C86.7 192.8 86.7 192.9 88.5 194.7L90 196.1L90.3 195.8L90.7 195.4L90.2 195.0C89.5 194.4 89.5 193.6 90.3 192.8C90.7 192.5 91 192.0 91 191.6C91 191.3 91.2 191.0 91.4 191.0C92.7 190.8 96.9 191.1 97.1 191.4C97.3 191.5 97.7 191.7 98 191.7C98.3 191.7 99.1 192.3 99.8 193.0L101 194.3L101.1 196.3C101.3 198.5 101.2 198.6 99.9 199.4L99 200.0L96.8 200.1L94.6 200.2L94 199.8ZM98.2 197.0L99.1 196.0L98.2 195.0C97.7 194.5 97.1 194.1 97 194.2C96.9 194.3 96.4 194.0 95.9 193.7C93.7 191.9 91.9 194.1 93.9 196.1C94.7 196.9 96.6 198.0 97 198.0C97.1 198.0 97.6 197.5 98.2 197.0ZM99.1 190.4C98.2 190.3 97.6 189.3 97.9 188.5L98.1 188.0L99.5 188.0L100.9 188.0L101.1 188.5C101.2 188.8 101.2 189.4 101.1 189.9C100.9 190.7 100.7 190.7 99.1 190.4ZM208 186.5C208 186.3 208.2 186.0 208.4 185.9L208.8 185.8L208.4 185.0L208 184.3L209.7 182.7C211.8 180.7 212 180.6 212 182.3L212 183.5L211.4 184.1C211.1 184.4 210.4 185.1 209.8 185.8C208.8 187.0 208 187.4 208 186.5ZM96.5 185.5L95.8 185.0L94.1 185.0L92.3 185.1L91.7 184.5C91.3 184.2 90.8 184.0 90.4 184.1C90 184.3 89.4 184.1 89 183.7C88.5 183.4 88 183.0 87.8 183.0C87.6 182.9 86.9 182.2 86.2 181.4L84.9 180.0L84.8 178.8C84.7 176.9 85 176.4 86.5 175.5L87.9 174.7L89.5 174.8C90.3 174.9 91.4 175.2 91.8 175.5C92.2 175.8 92.9 176.0 93.4 176.0C93.9 176.0 94.7 176.2 95.2 176.5C95.7 176.7 96.9 177.3 97.7 177.6C99.6 178.5 100.9 180.0 101.1 181.9L101.3 183.3L100.8 184.0C100.4 184.6 97.9 186.0 97.4 186.0C97.3 186.0 96.9 185.8 96.5 185.5ZM98.8 182.3L99.1 182.0L98.3 181.2C97.4 180.2 95.3 179.0 94.4 179.0C94.1 179.0 93.6 178.8 93.2 178.5L92.6 178.1L90.1 178.2C88.7 178.3 87.4 178.5 87.2 178.7L86.9 179.0L87.8 180.0C88.4 180.5 88.9 180.9 88.9 180.8C89 180.7 89.6 181.0 90.2 181.3C90.8 181.7 91.5 181.9 91.7 181.8C92 181.7 92.6 182.0 93.2 182.4L94.2 183.0L96.3 182.9C97.5 182.8 98.6 182.5 98.8 182.3ZM209 179.5C209 179.2 209.2 179.0 209.5 179.0C209.8 179.0 210 179.2 210 179.5C210 179.8 209.8 180.0 209.5 180.0C209.2 180.0 209 179.8 209 179.5ZM213.1 169.1C212.7 167.9 211.6 166.7 211 166.7L210.3 166.7L210.3 166.0C210.3 165.7 210.1 165.2 209.8 165.0C209.6 164.8 209.3 164.2 209.3 163.7L209.3 162.8L211.4 165.1C213.5 167.5 214.3 168.9 213.7 169.5L213.4 169.8L213.1 169.1ZM205.5 149.7C205.3 149.3 206.3 147.4 206.9 147.0C207.2 146.9 207.3 146.6 207.2 146.4C206.9 145.9 205.8 145.9 204.7 146.5C204.2 146.7 203.4 147.1 202.9 147.3L202 147.7L202 148.3L202 149.0L201 149.0L200 149.0L200 148.2C200 147.8 199.9 147.2 199.8 146.9L199.6 146.3L185.1 146.3L170.6 146.3L169.9 146.8L169.2 147.3L167.7 147.2C166.8 147.1 165.7 146.8 165.1 146.5L164 146.0L161.9 146.1L159.7 146.2L159.3 145.7L158.8 145.3L158.8 131.4L158.7 117.5L158 117.0C157.6 116.7 157.3 116.2 157.4 115.8L157.5 115.2L158.4 115.1L159.3 115.0L159.6 115.6C160.2 116.7 160.3 117.7 160.3 131.4L160.3 144.3L162.6 144.1C163.8 144.0 165.5 143.7 166.4 143.5C168.6 142.8 169.2 142.9 169.9 143.8L170.4 144.7L184.9 144.7L199.3 144.7L199.8 143.5C200.1 142.8 200.3 141.9 200.3 141.5C200.3 141.1 200.6 140.2 200.9 139.5C201.1 138.8 201.3 137.7 201.3 137.0C201.2 136.4 201.3 135.8 201.5 135.8C201.7 135.7 201.8 136.3 201.8 137.1C201.9 140.7 202 142.9 202.3 143.3L202.6 143.7L205.7 143.9L208.8 144.2L210.1 143.1L211.4 142.0L212.4 142.7C212.9 143.1 213.4 143.5 213.5 143.7C213.7 144.0 216.6 143.8 217.1 143.4C217.3 143.2 217.9 143.0 218.4 142.9L219.4 142.6L220.3 143.7L221.3 144.7L235.5 144.7L249.7 144.7L250 143.9L250.3 143.1L251.2 142.9C251.8 142.8 252.6 142.9 253.2 143.2C253.7 143.5 255.3 143.8 256.9 143.9L259.6 144.0L259.8 135.4C259.9 130.7 260.1 124.7 260.2 122.2L260.4 117.5L259.8 117.1C259.1 116.6 257.5 116.5 255.6 117.0L254.2 117.4L253.2 117.0L252.2 116.6L252.6 116.3C252.8 116.1 253.9 115.8 255.2 115.6L257.4 115.3L258 115.8C258.7 116.5 259.5 116.5 260 115.8C260.2 115.6 260.5 115.3 260.6 115.3C260.7 115.3 260.9 117.8 260.9 120.9C261 124.0 261.1 130.7 261.2 135.9L261.4 145.3L260.8 145.8L260.3 146.3L258.3 146.1L256.4 145.9L255.4 146.5C254.9 146.8 253.8 147.1 252.7 147.2L250.8 147.3L250.1 146.8L249.4 146.3L235.2 146.3L221.1 146.3L220.6 146.9C220.3 147.2 220 147.8 219.9 148.2L219.8 148.8L218.8 148.8L217.8 148.8L217.8 148.3C217.8 147.5 217.3 147.0 216.6 147.0C216.2 147.0 215.5 146.8 215.2 146.5L214.6 146.0L212.5 146.2L210.5 146.4L209.2 147.7C207.6 149.1 205.8 150.1 205.5 149.7ZM185.7 141.5C183.7 139.8 183.2 137.4 184.3 135.3C184.7 134.6 184.9 133.8 184.8 133.5C184.7 133.2 184.9 132.5 185.3 132.0C185.7 131.5 186 130.8 186 130.6C186 129.8 186.9 128.2 188.1 127.1L189.2 126.0L191.4 125.9L193.5 125.8L194.4 126.7C196.3 128.6 194.9 131.2 192.6 130.0C192.3 129.8 192 129.4 192 129.2C192 128.9 191.8 128.6 191.5 128.3L191 127.9L189.5 129.3C188.1 130.8 187.6 131.7 188.4 131.7C188.6 131.7 188.9 131.4 189.2 131.2C189.5 130.9 190.1 130.7 190.5 130.7C191.5 130.7 193.3 132.3 193.3 133.1C193.3 133.4 193.5 134.0 193.7 134.3L194.2 135.0L193.6 136.0C193.3 136.5 193 137.3 193 137.7C193 139.4 190.2 141.9 188 142.1L186.6 142.3L185.7 141.5ZM241.2 141.0L239.7 139.6L239.8 137.5L240 135.3L240.5 134.8C240.8 134.5 240.9 134.0 240.8 133.6C240.7 133.3 240.9 132.6 241.1 132.1C241.4 131.6 241.9 130.5 242.3 129.7C242.7 128.8 243.5 127.7 244.1 127.1L245.2 126.0L247.2 125.9C249.6 125.8 250.1 126.0 250.8 127.5C251.5 128.9 251.2 129.9 250.2 130.2C249.3 130.4 248 129.8 248 129.2C248 128.9 247.8 128.6 247.5 128.3L247 127.9L245.4 129.4C244.5 130.3 244 131.1 244.2 131.3L244.4 131.7L245 131.1L245.6 130.6L246.7 130.8C247.8 131.0 249.5 132.5 249.2 133.0C249.1 133.1 249.2 133.4 249.5 133.7C250.1 134.2 250.1 134.8 249.5 135.3C249.3 135.5 249.1 136.2 249.1 136.8C249.1 137.4 248.7 138.4 248.2 139.3L247.3 140.7L245.5 141.5C243.1 142.6 242.9 142.6 241.2 141.0ZM171.9 141.7C171.7 141.6 171 141.5 170.2 141.5L168.8 141.5L168.7 140.6L168.6 139.7L171.2 137.1C172.6 135.6 174.4 134.0 175.2 133.5C176 133.0 176.7 132.4 176.7 132.1C176.7 131.9 177 131.4 177.3 130.9C178.5 129.5 178 128.0 176.5 128.0C175.7 128.0 174 129.6 174 130.4C174 131.4 172.3 131.5 171.9 130.5C171.6 129.7 172.1 128.2 173.2 127.2L174.3 126.1L176.3 125.9C178.9 125.8 179.4 126.0 180.2 127.4L180.9 128.6L180.6 129.1C180.5 129.4 180.3 130.1 180.2 130.7C180.1 131.2 179.8 132.0 179.5 132.3C179.2 132.6 179 133.0 179 133.2C179 133.7 177.9 134.8 177.1 135.2C176.3 135.6 173.3 138.2 173.3 138.6C173.3 138.7 174.2 138.9 175.2 138.9L177.1 139.0L177.6 139.6C178.2 140.4 178 141.2 177 141.2C176.5 141.2 175.8 141.3 175.5 141.5C174.5 141.9 172.1 142.0 171.9 141.7ZM179.4 141.6C179.2 141.4 179 140.7 179 140.1L179 139.1L179.8 138.9C181.9 138.5 182.8 139.6 181.7 141.1C180.9 142.1 180 142.2 179.4 141.6ZM225.2 141.4C224.7 141.1 224.3 140.6 224.3 140.4C224.3 140.1 226.5 137.7 229.2 135.0L234 130.1L234 129.5C234 128.6 233.4 128.0 232.5 128.0C231.7 128.0 230 129.6 230 130.4C230 131.2 228.1 131.5 228 130.7C227.9 130.6 227.9 130.1 227.8 129.6L227.7 128.6L228.9 127.3L230.2 125.9L232.8 125.9L235.4 125.9L235.8 126.5L236.2 127.0L236.2 129.3L236.1 131.7L235.1 132.8C233.8 134.2 230 137.8 229.6 137.9C229.5 138.0 229.3 138.3 229.3 138.5L229.3 138.9L231.6 138.9L233.8 138.8L233.9 139.5C234 140.4 232.8 141.8 232.2 141.5C231.9 141.4 231.3 141.5 231 141.8L230.3 142.2L230 141.7L229.7 141.2L229 141.6C228.1 142.2 226.3 142.1 225.2 141.4ZM235.7 141.3C234.4 140.2 235 139.0 236.9 139.0C238.6 139.0 238.8 140.4 237.2 141.4L236.5 141.9L235.7 141.3ZM188.8 139.0C189.5 139.0 190.7 137.1 190.9 135.9C191.1 133.9 189.4 133.3 188 134.9L187.1 135.8L187.2 137.0C187.2 137.6 187.3 138.4 187.3 138.8L187.3 139.4L187.9 139.2C188.2 139.1 188.6 139.0 188.8 139.0ZM245.6 138.6C245.8 138.4 246 137.9 246 137.6C246 137.3 246.2 136.9 246.5 136.7C247.1 136.2 247.2 135.0 246.6 134.4C245.9 133.7 244.9 133.9 243.9 134.9L243 135.8L243 136.9C243 137.5 243.1 138.2 243.2 138.5C243.4 139.1 245 139.2 245.6 138.6ZM209.6 127.4C207.3 125.0 206.3 123.6 206.3 122.4C206.3 121.1 206.6 121.1 207.6 122.1C208.1 122.6 208.7 123.0 209.1 123.1L209.7 123.3L209.5 122.7C209.3 122.4 209.2 121.3 209.1 120.3L209 118.4L209.5 118.2C210.3 117.9 210.7 118.3 210.5 119.2C210.4 119.7 210.5 120.9 210.7 122.1L211 124.1L210.7 124.4C210.2 125.0 210.3 125.9 210.8 126.1C211.1 126.2 211.3 126.6 211.3 127.0C211.3 127.3 211.5 127.7 211.7 127.8C212.1 128.1 212.1 129.0 211.6 129.0C211.4 129.0 210.5 128.3 209.6 127.4ZM223.8 116.9L223.2 116.3L223.8 115.8C224.6 115.2 227.3 115.2 228.1 115.8L228.8 116.3L228.4 116.7C228.3 116.9 227.3 117.1 226.3 117.2L224.5 117.4L223.8 116.9ZM236.4 117.0C235.2 116.7 235.2 116.2 236.2 115.7L237 115.2L240 115.6C241.7 115.8 243.2 116.1 243.4 116.3L243.8 116.6L242.9 117.0C241.9 117.4 237.6 117.4 236.4 117.0ZM144 116.6C143.1 116.3 143.2 115.7 144.2 115.3C145.8 114.7 148.3 115.5 147.4 116.4C147 116.8 144.9 116.9 144 116.6ZM180.5 116.6C180.4 116.4 180.5 116.1 180.9 115.8L181.5 115.4L184 115.4L186.5 115.4L187.1 115.8C188.2 116.7 187.4 117.0 184 117.0C182 117.0 180.6 116.9 180.5 116.6ZM207.5 116.7C207.4 116.5 207.5 116.0 207.7 115.7L208.2 115.0L210 115.1L211.8 115.2L211.8 116.0L211.8 116.8L209.8 116.9C208.6 117.0 207.6 116.9 207.5 116.7ZM110.4 115.9L110.5 115.2L111.2 115.1C112 114.9 113.2 115.8 112.9 116.3C112.7 116.5 112.1 116.7 111.5 116.7L110.3 116.7L110.4 115.9ZM167.5 115.7C167.3 115.3 167.9 114.9 168.3 115.2C168.7 115.4 168.5 116.0 168 116.0C167.8 116.0 167.6 115.9 167.5 115.7ZM258.5 114.7C258.3 114.3 258.9 113.9 259.3 114.2C259.7 114.4 259.5 115.0 259 115.0C258.8 115.0 258.6 114.9 258.5 114.7ZM208.1 108.6L208.2 107.2L209.8 105.6C210.7 104.7 211.6 104.1 211.7 104.2C212.6 104.8 211.5 107.2 209.4 109.2C208.3 110.3 208.1 110.2 208.1 108.6ZM208.8 98.1C208.1 97.9 208.2 97.2 209 96.5L209.6 95.9L210.5 96.1C211.4 96.4 211.9 97.2 211.5 97.7C211.1 98.1 209.3 98.4 208.8 98.1ZM208.1 76.5C208 76.2 208 75.8 208.1 75.5L208.3 75.0L210.1 75.1L211.8 75.2L211.9 75.9L212 76.7L211.4 76.7C211.1 76.7 210.3 76.8 209.6 76.9L208.3 77.1L208.1 76.5ZM208 66.2C208 65.4 208.8 64.0 209.3 64.0C209.5 64.0 209.8 64.3 210 64.7L210.4 65.5L209.5 66.2C208.3 67.2 208 67.2 208 66.2ZM212 59.0C212 58.2 213.2 57.0 213.9 57.0C214.5 57.0 214.4 57.6 213.6 58.7C212.8 59.8 212 60.0 212 59.0Z"/><path fill="#1C2226" d="M236.1 736.8C236.1 736.4 236.3 736.0 236.5 736.0C236.7 736.0 236.9 736.4 236.9 736.8L237 737.7L236.5 737.7L236 737.7L236.1 736.8ZM184.5 721.0L184.7 720.1L183.9 719.9L183.2 719.8L183.1 718.0C183 717.0 183.2 715.7 183.5 715.0L183.9 713.8L184 705.1L184 696.4L184.5 695.3L184.9 694.2L185 685.2L185.1 676.2L185.4 675.5L185.8 674.9L185.9 665.5L186.1 656.2L186.5 655.7L186.8 655.2L187 645.9L187.1 636.5L187.5 635.7L187.9 634.8L188 625.7L188 616.6L188.5 615.9L188.9 615.2L189 605.8L189.1 596.5L189.5 595.7L189.9 594.8L190 586.0L190 577.2L190.4 576.5L190.8 575.8L191 566.3C191.1 561.1 191.4 556.2 191.6 555.5C191.8 554.7 192 550.7 192 545.7L192 537.2L192.4 536.7L192.8 536.3L192.9 527.1L193 517.8L193.5 516.7L193.9 515.5L194 506.2L194 496.9L194.4 496.4L194.8 496.0L194.9 486.7L195 477.5L195.5 476.3L195.9 475.2L196 466.0L196 456.9L196.4 456.2L196.8 455.5L196.9 446.3L197 437.2L197.5 436.0L197.9 434.8L198 427.2C198 422.9 198.2 418.6 198.4 417.5C198.6 416.4 198.8 411.5 198.9 406.7L199 397.8L199.5 396.2L200 394.5L200 389.8L200 385.0L200.8 385.0C201.7 385.0 202 385.6 201.6 386.4C201.4 386.8 201.3 387.4 201.4 387.9L201.5 388.8L203.5 386.9C205.4 385.2 207 384.4 207 385.3C207 385.5 205.9 386.7 204.5 388.0C203.1 389.4 202 390.7 202 391.0C202 391.3 203.7 393.2 205.8 395.3C207.9 397.4 209.7 399.3 209.7 399.6C209.7 400.6 208.3 399.7 205 396.5C203 394.5 201.3 393.1 201.2 393.2C201.1 393.4 201 396.2 201 399.4L200.9 405.2L200.5 406.4L200.1 407.6L200 416.5L200 425.4L199.5 426.4L199 427.3L199.3 427.5C199.5 427.6 200.6 426.9 201.8 425.9C203 424.8 204 424.0 204.2 424.0C204.4 424.0 205.5 423.0 206.7 421.8C207.9 420.6 210.2 418.5 211.8 417.2C213.5 415.8 215.8 413.8 217 412.6L219.1 410.4L218.3 409.4C217.9 408.8 217 407.9 216.3 407.5C214.5 406.2 211.9 403.4 212.1 402.7C212.3 401.7 213 402.1 216 404.9C217.7 406.5 219.2 407.9 219.4 407.9C219.8 408.1 219.8 405.2 219.4 404.8C219.2 404.6 219 400.2 219 394.8L218.9 385.2L219.4 385.1L220 385.0L220 387.7C220.1 392.3 220.3 394.4 220.6 394.8C220.8 395.0 221 399.0 221 404.2L221.1 413.2L221.5 414.5L222 415.8L222 423.2C222.1 433.4 222.2 434.2 222.6 434.7L223 435.2L223 444.6L223.1 454.0L223.5 454.6L224 455.2L224 464.0L224 472.9L224.5 474.7L224.9 476.5L225 485.0L225.1 493.5L225.5 494.4L226 495.2L226 504.0C226.1 509.1 226.2 513.2 226.4 513.8C226.6 514.4 226.9 519.2 227 524.5L227.2 534.2L227.6 534.8L227.9 535.5L228.1 544.9L228.2 554.3L228.6 554.7L229 555.2L229 564.3L229.1 573.5L229.5 574.4L230 575.3L230 584.1L230 592.9L230.5 594.3L230.9 595.6L231 604.4L231.1 613.2L231.5 614.2L232 615.2L232.1 624.5L232.2 633.8L232.6 634.5L232.9 635.2L233 644.0L233.1 652.8L233.5 653.9L233.9 654.9L234 664.2L234.1 673.5L234.5 674.0L235 674.5L235 683.8L235.1 693.1L235.5 693.9L236 694.7L236 703.4L236.1 712.2L236.5 713.0C236.6 713.5 236.9 715.4 237 717.3L237.2 720.8L238.2 720.9C240.4 720.9 240.5 722.0 238.3 722.0L237 722.0L236.8 721.5C236.5 720.8 235.3 720.9 234.4 721.5C234 721.8 233.3 722.0 232.9 721.9L232.2 721.8L232 721.0L231.8 720.2L231.1 720.1C230.7 720.0 230.2 719.7 230 719.5C229.8 719.2 229.4 719.0 229.2 719.0C228.9 719.0 228.3 718.8 227.7 718.5C227.1 718.2 226.2 717.8 225.6 717.5C225.1 717.2 224.3 717.0 224 717.0C223.7 717.0 223.2 716.8 223 716.5C222.8 716.2 222.2 716.0 221.8 716.0C221.4 716.0 220.9 715.8 220.7 715.5C220.4 715.2 219.8 715.0 219.3 715.0C218.8 715.0 218.2 714.8 218 714.5C217.8 714.2 217.3 714.0 217 714.0C216.7 714.0 216.2 713.8 216 713.5C215.8 713.2 215.3 713.0 215 713.0C214.6 713.0 213.8 712.7 213.2 712.3L212 711.6L212.1 709.9L212.2 708.2L212.9 708.1C213.3 708.0 213.8 707.7 214 707.5C214.2 707.2 214.8 707.0 215.2 707.0C215.6 707.0 216.1 706.8 216.3 706.5C216.6 706.2 217.2 706.0 217.7 706.0C218.2 706.0 218.8 705.8 219 705.5C219.2 705.2 219.7 705.0 220 705.0C220.3 705.0 220.8 704.8 221 704.5C221.2 704.2 221.8 704.0 222.2 704.0C223 704.0 224 703.6 225.7 702.6C225.9 702.5 226.4 702.2 226.7 702.1C228.6 701.3 230 700.6 229.9 700.4C229.8 700.2 227.2 700.2 224.1 700.2C221 700.3 216.7 700.2 214.4 700.1L210.3 699.9L210.3 699.5L210.3 699.0L222.1 698.9L233.8 698.8L233.9 692.5C233.9 684.0 233.5 682.2 231.6 683.5C231.2 683.8 230.5 684.0 230 684.0C229.5 684.0 228.9 684.2 228.5 684.5C228.2 684.8 227.5 685.0 227.1 685.0C226.7 685.0 226.2 685.2 226 685.5C225.8 685.8 225.1 686.0 224.5 686.0C223.9 686.0 223.2 686.2 223 686.5C222.8 686.8 222.3 687.0 221.9 687.0C221.5 687.0 220.8 687.2 220.5 687.5C220.1 687.8 219.5 688.0 219.2 688.0C218.8 688.0 218.2 688.2 217.9 688.5C217.5 688.8 216.8 689.0 216.3 689.0C215.8 689.0 215.2 689.2 215 689.5C214.5 690.1 212 690.2 212 689.6C212 689.0 213.5 688.0 214.5 688.0C215.1 688.0 215.8 687.8 216 687.5C216.2 687.2 216.7 687.0 217.1 687.0C217.5 687.0 218.1 686.8 218.5 686.5C218.8 686.2 219.5 686.0 219.9 686.0C220.3 686.0 220.8 685.8 221 685.5C221.2 685.2 221.9 685.0 222.5 685.0C223.1 685.0 223.8 684.8 224 684.5C224.2 684.2 224.8 684.0 225.2 684.0C225.7 684.0 226.5 683.8 226.9 683.5C227.8 683.1 229.9 682.3 231.1 681.9C232 681.6 231.5 681.0 230.4 681.0C229.8 681.0 229.2 680.8 229 680.5C228.8 680.2 228.3 680.0 228 680.0C227.7 680.0 227.2 679.8 227 679.5C226.8 679.2 226.2 679.0 225.7 679.0C225.2 679.0 224.5 678.8 224.2 678.5C223.8 678.2 223.3 678.0 223 678.0C222.7 678.0 222.2 677.8 222 677.5C221.8 677.2 221.3 677.0 220.9 677.0C220.5 677.0 219.8 676.8 219.5 676.5C219.1 676.2 218.5 676.0 218.1 676.0C217.7 676.0 217.2 675.8 217 675.5C216.8 675.2 216.3 675.0 216 675.0C215.7 675.0 215 674.8 214.4 674.5C213.9 674.3 212.9 673.8 212.2 673.5C211.6 673.1 211 672.7 211 672.4L211 672.0L212.3 672.0C213 672.0 213.8 672.2 214 672.5C214.2 672.8 214.7 673.0 215.1 673.0C215.5 673.0 216.1 673.2 216.5 673.5C216.8 673.8 217.5 674.0 217.9 674.0C218.3 674.0 218.8 674.2 219 674.5C219.2 674.8 219.7 675.0 220 675.0C220.3 675.0 220.8 675.2 221 675.5C221.2 675.8 221.8 676.0 222.3 676.0C222.8 676.0 223.5 676.2 223.9 676.5C224.2 676.8 224.7 677.0 225 677.0C225.3 677.0 225.8 677.2 226 677.5C226.2 677.8 226.8 678.0 227.3 678.0C227.8 678.0 228.4 678.2 228.7 678.5C228.9 678.8 229.4 679.0 229.8 679.0C230.2 679.0 230.8 679.2 231 679.5C231.2 679.8 231.8 680.0 232.1 679.9L232.8 679.8L232.8 672.3L232.8 664.9L232.4 664.1L232 663.3L232 655.0C231.9 650.4 231.8 646.2 231.7 645.6L231.4 644.5L231 644.6C230.7 644.7 230 644.8 229.4 644.9C228.8 645.0 228.2 645.3 228 645.5C227.8 645.8 227.3 646.0 227 646.0C226.7 646.0 226.2 646.2 226 646.5C225.8 646.8 225.2 647.0 224.8 647.0C224.4 647.0 223.9 647.2 223.7 647.5C223.4 647.8 222.8 648.0 222.3 648.0C221.8 648.0 221.2 648.2 221 648.5C220.8 648.8 220.3 649.0 220 649.0C219.7 649.0 219.2 649.2 219 649.5C218.8 649.8 218.3 650.0 217.9 650.0C217.5 650.0 216.8 650.2 216.5 650.5C216.1 650.8 215.5 651.0 215.1 651.0C214.7 651.0 214.2 651.2 214 651.5C213.8 651.8 213.3 652.0 213 652.0C212.7 652.0 212.2 652.2 212 652.5L211.5 653.1L210.7 652.9L209.9 652.7L209.3 653.4C208.9 653.7 208.4 654.0 208 654.0C207.7 654.0 207.2 654.2 207 654.5C206.8 654.8 206.3 655.0 206 655.0C205.7 655.0 205.2 655.2 205 655.5C204.8 655.8 204.3 656.0 203.9 656.0C203.5 656.0 202.9 656.2 202.5 656.5C202.2 656.8 201.5 657.0 201.1 657.0C200.7 657.0 200.2 657.2 200 657.5C199.8 657.8 199.3 658.0 199 658.0C198.7 658.0 198.2 658.2 198 658.5C197.8 658.8 197.3 659.0 196.9 659.0C196.5 659.0 195.8 659.2 195.5 659.5C195.1 659.8 194.5 660.0 194.1 660.0C193.7 660.0 193.2 660.2 193 660.5C192.8 660.7 192.2 661.0 191.7 661.1C189.8 661.6 189.1 663.0 190.8 663.0C191.2 663.0 191.8 663.2 192 663.5C192.2 663.8 192.7 664.0 193.1 664.0C193.5 664.0 194.2 664.2 194.5 664.5C194.9 664.8 195.5 665.0 195.9 665.0C196.3 665.0 196.8 665.2 197 665.5C197.2 665.8 197.8 666.0 198.2 666.0C198.6 666.0 199.1 666.2 199.3 666.5C199.6 666.8 200.2 667.0 200.7 667.0C201.2 667.0 201.8 667.2 202 667.5C202.2 667.8 202.8 668.0 203.2 668.0C203.6 668.0 204.1 668.2 204.3 668.5C204.6 668.8 204.9 669.0 205.2 669.0C205.4 669.0 206.2 669.3 206.8 669.6L208 670.1L208 670.8L208 671.4L206.8 671.2C206.1 671.0 205.3 670.7 205 670.5C204.7 670.2 204.2 670.0 203.8 670.0C203.5 670.0 202.9 669.8 202.5 669.5C202.2 669.2 201.5 669.0 201.1 669.0C200.7 669.0 200.2 668.8 200 668.5C199.8 668.2 199.3 668.0 198.9 668.0C198.5 668.0 197.9 667.8 197.5 667.5C197.2 667.2 196.5 667.0 196.1 667.0C195.7 667.0 195.2 666.8 195 666.5C194.8 666.2 194.3 666.0 194 666.0C193.7 666.0 193.2 665.8 192.9 665.5C192.5 665.2 191.8 665.0 191.3 665.0C190.8 665.0 190.2 664.8 190 664.5C189.3 663.7 188.4 663.9 187.8 665.1L187.2 666.2L187.1 675.5L187 684.8L186.5 686.2L186 687.5L186.1 692.7L186.2 697.8L186.9 697.9C187.2 698.0 187.8 697.8 188 697.5C188.2 697.2 188.9 697.0 189.5 697.0C190.1 697.0 190.8 696.8 191 696.5C191.2 696.2 191.8 696.0 192.3 696.0C192.8 696.0 193.5 695.8 193.9 695.5C194.2 695.2 194.8 695.0 195.2 695.0C195.6 695.0 196.2 694.8 196.5 694.5C196.9 694.2 197.5 694.0 197.8 694.0C198.2 694.0 198.8 693.8 199.1 693.5C199.5 693.2 200.2 693.0 200.7 693.0C201.2 693.0 201.8 692.8 202 692.5C202.2 692.2 202.8 692.0 203.2 692.0C203.7 692.0 204.4 691.8 204.8 691.6C205.9 691.0 207.6 690.4 207.8 690.6C208.6 691.4 206.8 693.0 205.2 693.0C204.8 693.0 204.2 693.2 204 693.5C203.8 693.8 203.1 694.0 202.5 694.0C201.9 694.0 201.2 694.2 201 694.5C200.8 694.8 200.2 695.0 199.7 695.0C199.2 695.0 198.6 695.2 198.3 695.5C198.1 695.8 197.6 696.0 197.2 696.0C196.8 696.0 196.2 696.2 195.8 696.5C195.5 696.8 194.8 697.0 194.3 697.0C193.8 697.0 193.3 697.2 193.1 697.4C192.9 697.6 192.1 697.9 191.4 698.0C190.7 698.1 190.2 698.3 190.2 698.5L190.3 698.8L199.2 698.9L208 699.0L207.9 699.6L207.8 700.2L199.2 700.2L190.5 700.2L190.3 700.5C190.2 700.7 190.5 700.9 190.9 700.9C191.3 701.0 191.8 701.3 192 701.5C192.2 701.8 192.7 702.0 193 702.0C193.3 702.0 193.8 702.2 194 702.5C194.2 702.8 194.7 703.0 195.1 703.0C195.5 703.0 196.1 703.2 196.5 703.5C196.8 703.8 197.5 704.0 197.9 704.0C198.3 704.0 198.8 704.2 199 704.5C199.2 704.8 199.6 705.0 199.8 705.0C200.1 705.0 200.7 705.2 201.3 705.5C201.9 705.8 202.8 706.2 203.4 706.5C203.9 706.8 204.7 707.0 205 707.0C205.3 707.0 205.8 707.2 206 707.5C206.2 707.8 206.7 708.0 207 708.0C207.3 708.0 207.8 708.3 208.2 708.7L208.8 709.4L208.4 710.0C208.2 710.4 208 710.9 208 711.1C208 711.7 205.9 713.0 205 713.0C204.7 713.0 204.2 713.2 204 713.5C203.8 713.8 203.3 714.0 203 714.0C202.7 714.0 202.2 714.2 202 714.5C201.8 714.8 201.2 715.0 200.8 715.0C200.4 715.0 199.9 715.2 199.7 715.5C199.4 715.8 198.8 716.0 198.3 716.0C197.8 716.0 197.2 716.2 197 716.5C196.8 716.8 196.3 717.0 196 717.0C195.7 717.0 195.2 717.2 195 717.5C194.8 717.8 194.2 718.0 193.7 718.0C193.2 718.0 192.6 718.2 192.3 718.5C192.1 718.8 191.6 719.0 191.2 719.0C190.8 719.0 190.2 719.2 190 719.5C189.8 719.7 189.3 720.0 188.9 720.1L188.2 720.2L188.1 721.1L188 722.0L186.1 722.0L184.3 722.0L184.5 721.0ZM186 719.5C186.2 719.2 186.8 719.0 187.2 719.0C187.6 719.0 188.1 718.8 188.3 718.5C188.6 718.2 189.1 718.0 189.5 718.0C189.9 718.0 190.4 717.8 190.7 717.5C190.9 717.2 191.4 717.0 191.8 717.0C192.2 717.0 192.8 716.8 193 716.5C193.2 716.2 193.7 716.0 194.1 716.0C194.5 716.0 195.1 715.8 195.5 715.5C195.8 715.2 196.5 715.0 196.9 715.0C197.3 715.0 197.8 714.8 198 714.5C198.2 714.2 198.7 714.0 199 714.0C199.3 714.0 199.8 713.8 200 713.5C200.2 713.2 200.8 713.0 201.2 713.0C201.6 713.0 202.1 712.8 202.3 712.5C202.6 712.2 203.2 712.0 203.7 712.0C204.2 712.0 204.8 711.8 205 711.5C205.2 711.2 205.7 711.0 206.1 711.0C206.4 711.0 206.8 710.8 206.9 710.5L207.1 709.9L206.5 709.5C206.2 709.2 205.5 709.0 205.1 709.0C204.7 709.0 204.2 708.8 204 708.5C203.8 708.2 203.3 708.0 203 708.0C202.7 708.0 202.2 707.8 202 707.5C201.8 707.2 201.3 707.0 200.9 707.0C200.5 707.0 199.9 706.8 199.5 706.5C199.2 706.2 198.5 706.0 198.1 706.0C197.7 706.0 197.2 705.8 197 705.5C196.8 705.2 196.3 705.0 196 705.0C195.7 705.0 195.2 704.8 195 704.5C194.8 704.2 194.3 704.0 193.9 704.0C193.5 704.0 192.8 703.8 192.5 703.5C192.1 703.2 191.5 703.0 191.1 703.0C190.7 703.0 190.2 702.8 190 702.5C189.8 702.2 189.2 702.0 188.8 702.0C188.4 702.0 188 701.8 187.9 701.5C187.8 701.2 187.4 701.0 186.9 701.1L186.2 701.2L186 703.2C185.9 704.3 185.7 705.5 185.5 705.8C185.3 706.2 185.1 709.4 185 713.2L184.9 720.0L185.3 720.0C185.4 720.0 185.8 719.8 186 719.5ZM235 714.1C235 708.7 234.8 706.5 234.1 702.6C233.9 701.1 233.2 700.7 232.4 701.5C232 701.8 231.5 702.0 231.1 702.0C230.7 702.0 230.2 702.2 230 702.5C229.8 702.8 229.2 703.0 228.8 703.0C228.4 703.0 227.9 703.2 227.7 703.5C227.4 703.8 227 704.0 226.7 704.0C226.4 704.0 225.8 704.2 225.5 704.5C225.1 704.8 224.5 705.0 224.1 705.0C223.7 705.0 223.2 705.2 223 705.5C222.8 705.8 222.3 706.0 221.9 706.0C221.5 706.0 220.9 706.2 220.5 706.5C220.2 706.8 219.5 707.0 219.1 707.0C218.7 707.0 218.2 707.2 218 707.5C217.8 707.8 217.3 708.0 217 708.0C216.7 708.0 216.2 708.2 216 708.5C215.8 708.8 215.3 709.0 215 709.0C214.2 709.0 212.8 710.1 213.1 710.6C213.3 710.8 213.7 711.0 214.2 711.0C214.6 711.0 215 711.1 215 711.3C215 711.5 215.6 711.8 216.3 712.0C217 712.2 217.7 712.5 217.8 712.7C217.9 712.9 218.4 713.0 218.8 713.0C219.2 713.0 219.8 713.2 220 713.5C220.2 713.8 220.6 714.0 220.8 714.0C221.1 714.0 221.7 714.2 222.3 714.5C222.9 714.8 223.8 715.2 224.4 715.5C224.9 715.8 225.7 716.0 226 716.0C226.3 716.0 226.8 716.2 227 716.5C227.2 716.8 227.7 717.0 228.1 717.0C228.5 717.0 229.1 717.2 229.5 717.5C229.8 717.8 230.5 718.0 230.9 718.0C231.3 718.0 231.8 718.2 232 718.5C232.2 718.8 232.7 719.0 233 719.0C233.3 719.0 233.8 719.2 234 719.5C234.9 720.5 235 719.8 235 714.1ZM189 660.5C189.2 660.2 189.7 660.0 190 660.0C190.3 660.0 190.8 659.8 191.2 659.5C191.5 659.2 192.1 659.0 192.5 659.0C192.9 659.0 193.5 658.8 193.9 658.5C194.2 658.2 194.7 658.0 195 658.0C195.3 658.0 195.8 657.8 196 657.5C196.2 657.2 196.7 657.0 197.1 657.0C197.5 657.0 198.2 656.8 198.5 656.5C198.9 656.2 199.5 656.0 199.9 656.0C200.3 656.0 200.8 655.8 201 655.5C201.2 655.2 201.7 655.0 202 655.0C202.3 655.0 202.8 654.8 203 654.5C203.2 654.2 203.8 654.0 204.2 654.0C204.6 654.0 205.1 653.8 205.3 653.5C205.6 653.2 206.2 653.0 206.7 653.0C207.2 653.0 207.8 652.8 208 652.5C208.2 652.2 208.7 652.1 209 652.2L209.6 652.4L210 651.7C210.2 651.3 210.7 651.0 211.1 651.0C211.6 651.0 212.1 650.8 212.3 650.5C212.6 650.2 213.2 650.0 213.7 650.0C214.2 650.0 214.8 649.8 215 649.5C215.2 649.2 215.7 649.0 216 649.0C216.3 649.0 216.8 648.8 217 648.5C217.2 648.2 217.8 648.0 218.3 648.0C218.8 648.0 219.4 647.8 219.7 647.5C219.9 647.2 220.4 647.0 220.8 647.0C221.2 647.0 221.8 646.8 222 646.5C222.2 646.2 222.7 646.0 223 646.0C223.3 646.0 223.8 645.8 224.2 645.5C224.5 645.2 225.2 645.0 225.5 645.0C225.9 645.0 226.4 644.8 226.7 644.5C226.9 644.3 227.5 644.0 227.9 643.9L228.8 643.8L228.8 643.0L228.8 642.2L228.1 642.1C227.7 642.0 227.2 641.7 227 641.5C226.8 641.2 226.2 641.0 225.8 641.0C225.4 641.0 224.9 640.8 224.7 640.5C224.4 640.2 223.9 640.0 223.5 640.0C223.1 640.0 222.6 639.8 222.3 639.5C222.1 639.2 221.6 639.0 221.2 639.0C220.8 639.0 220.2 638.8 220 638.5C219.8 638.2 219.3 638.0 219 638.0C218.7 638.0 218.2 637.8 218 637.5C217.8 637.2 217.3 637.0 217 637.0C216.7 637.0 216.2 636.8 215.9 636.5C215.5 636.2 214.9 636.0 214.6 636.0C213.7 636.0 212 634.6 212 633.9C212 633.3 212.8 633.1 213.2 633.7C213.3 633.8 213.6 634.0 214 634.0C214.3 634.0 214.8 634.2 215 634.5C215.2 634.8 215.7 635.0 216 635.0C216.3 635.0 217.4 635.4 218.5 636.0C219.6 636.5 220.7 637.0 221 637.0C221.3 637.0 221.8 637.2 222 637.5C222.2 637.8 222.7 638.0 223 638.0C223.3 638.0 223.8 638.2 224 638.5C224.2 638.8 224.8 639.0 225.2 639.0C225.6 639.0 226.1 639.2 226.3 639.5C226.6 639.8 227 640.0 227.3 640.0C227.7 640.0 228.4 640.3 228.9 640.6C229.5 640.9 230.1 641.0 230.5 640.9L231.1 640.7L230.9 632.9L230.8 625.2L230.4 624.5L230 623.8L230 615.3C229.9 610.6 229.8 606.6 229.8 606.4C229.5 605.8 227.5 605.9 227 606.5C226.8 606.8 226.3 607.0 226 607.0C225.7 607.0 225.2 607.2 225 607.5C224.8 607.8 224.3 608.0 224 608.0C223.7 608.0 223.2 608.2 223 608.5C222.8 608.8 222.3 609.0 222 609.0C221.7 609.0 221.2 609.2 221 609.5C220.8 609.8 220.4 610.0 220.1 610.0C219.8 610.0 219.2 610.2 218.7 610.5C218.2 610.7 217.2 611.2 216.5 611.5C215.8 611.8 214.7 612.3 214.2 612.5C213.7 612.8 213.1 613.0 212.8 613.0C212.6 613.0 212.2 613.2 212 613.5C211.8 613.8 211.2 614.0 210.8 614.0C210.4 614.0 210 614.2 209.9 614.5C209.8 614.8 209.4 615.0 209.1 615.0C208.7 615.0 208.2 615.2 208 615.5C207.8 615.8 207.3 616.0 207 616.0C206.7 616.0 206.2 616.2 206 616.5C205.8 616.8 205.3 617.0 205 617.0C204.7 617.0 204.2 617.2 204 617.5C203.8 617.8 203.3 618.0 203 618.0C202.7 618.0 202.2 618.2 201.8 618.5C201.5 618.8 200.9 619.0 200.6 619.0C200.3 619.0 199.9 619.2 199.7 619.5C199.4 619.8 198.8 620.0 198.3 620.0C197.8 620.0 197.2 620.2 197 620.5C196.8 620.8 196.3 621.0 196 621.0C195.7 621.0 195.2 621.2 195 621.5C194.8 621.8 194.3 622.0 194 622.0C193.7 622.0 193.2 622.2 193 622.5C192.8 622.7 192.3 623.0 192 623.1C191.1 623.2 191.1 623.8 192 623.9C192.3 624.0 192.8 624.3 193 624.5C193.2 624.8 193.7 625.0 194 625.0C194.3 625.0 194.8 625.2 195 625.5C195.2 625.8 195.7 626.0 196 626.0C196.3 626.0 196.8 626.2 197 626.5C197.2 626.8 197.7 627.0 198.1 627.0C198.5 627.0 199.2 627.2 199.5 627.5C199.9 627.8 200.5 628.0 200.9 628.0C201.3 628.0 201.8 628.2 202 628.5C202.2 628.8 202.7 629.0 203 629.0C203.3 629.0 203.8 629.2 204 629.5C204.2 629.8 204.8 630.0 205.2 630.0C205.6 630.0 206.1 630.2 206.2 630.4C206.3 630.5 206.8 630.8 207.2 631.0L208 631.3L208 632.2C208 633.1 207.3 633.3 206.7 632.5C206.4 632.2 206 632.0 205.7 632.0C205.4 632.0 204.8 631.8 204.5 631.5C204.1 631.2 203.6 631.0 203.3 631.0C203 631.0 202.6 630.8 202.3 630.5C202.1 630.2 201.6 630.0 201.2 630.0C200.8 630.0 200.2 629.8 200 629.5C199.8 629.2 199.3 629.0 199 629.0C198.7 629.0 198.2 628.8 198 628.5C197.8 628.2 197.2 628.0 196.8 628.0C196.4 628.0 195.9 627.8 195.7 627.5C195.4 627.2 194.9 627.0 194.5 627.0C194.1 627.0 193.5 626.8 193.1 626.5C192.8 626.2 192.2 626.0 191.9 626.0C191.6 626.0 191.2 625.7 191 625.4L190.7 624.8L189.9 625.6L189.2 626.4L189.1 635.6L189 644.8L188.5 646.0L188.1 647.2L188 654.1L188 661.0L188.3 661.0C188.4 661.0 188.8 660.8 189 660.5ZM191.5 621.5C191.9 621.2 192.4 621.0 192.7 621.0C193 621.0 193.4 620.8 193.7 620.5C193.9 620.2 194.4 620.0 194.8 620.0C195.2 620.0 195.8 619.8 196 619.5C196.2 619.2 196.7 619.0 197 619.0C197.3 619.0 197.8 618.8 198 618.5C198.2 618.2 198.7 618.0 199 618.0C199.3 618.0 199.8 617.8 200 617.5C200.2 617.2 200.7 617.0 201 617.0C201.3 617.0 201.8 616.8 202 616.5C202.2 616.2 202.7 616.0 203 616.0C203.3 616.0 203.8 615.8 204 615.5C204.2 615.2 204.6 615.0 204.8 615.0C205 615.0 206.1 614.5 207.2 614.0C208.2 613.4 209.5 613.0 209.9 613.0C210.3 613.0 210.8 612.8 211 612.5C211.2 612.2 211.7 612.0 212 612.0C212.3 612.0 212.8 611.8 213 611.5C213.2 611.2 213.7 611.0 214 611.0C214.3 611.0 214.8 610.8 215 610.5C215.2 610.2 215.7 610.0 216 610.0C216.3 610.0 216.8 609.8 217 609.5C217.2 609.2 217.7 609.0 218 609.0C218.3 609.0 218.8 608.8 219 608.5C219.2 608.2 219.6 608.0 219.8 608.0C220.1 608.0 220.7 607.8 221.2 607.5C221.7 607.3 222.4 607.0 222.7 606.9C222.9 606.8 223.4 606.5 223.7 606.4C223.9 606.2 225 605.7 225.9 605.3L227.7 604.5L227.1 603.7C226.9 603.3 226.4 603.0 226 603.0C225.7 603.0 225.2 602.8 225 602.5C224.8 602.2 224.3 602.0 224 602.0C223.7 602.0 223.2 601.8 223 601.5C222.8 601.2 222.3 601.0 222 601.0C221.7 601.0 221.2 600.8 221 600.5C220.8 600.2 220.3 600.0 220 600.0C219.7 600.0 219.2 599.8 219 599.5C218.8 599.2 218.3 599.0 218 599.0C217.7 599.0 217.2 598.8 217 598.5C216.8 598.2 216.3 598.0 216 598.0C215.7 598.0 215.2 597.8 215 597.5C214.8 597.2 214.4 597.0 214.1 597.0C213.4 597.0 212 596.0 212 595.5C212 594.7 213.7 594.9 215.2 596.0C216 596.5 216.9 597.0 217.2 597.0C217.5 597.0 218.1 597.2 218.6 597.5C219.1 597.7 220.6 598.5 222 599.2C223.4 599.8 224.7 600.5 225 600.6C227.2 601.8 227.7 602.0 228.3 602.0L229 602.0L229 594.6C228.9 590.5 228.8 586.9 228.7 586.6L228.6 586.0L220.4 585.9L212.2 585.8L212.2 585.0L212.2 584.2L220 584.0L227.8 583.8L227.9 577.3C228 573.8 227.9 570.0 227.8 569.1L227.6 567.3L227.1 567.1C226.9 567.0 226.4 567.2 226 567.5C225.7 567.8 225.2 568.0 224.9 568.0C224.6 568.0 224.2 568.2 224 568.5C223.8 568.8 223.3 569.0 223 569.0C222.7 569.0 222.2 569.2 222 569.5C221.8 569.8 221.4 570.0 221.1 570.0C220.9 570.0 220 570.4 219.2 571.0C218.4 571.5 217.6 572.0 217.4 572.0C217.2 572.0 216.1 572.5 215 573.0C213.8 573.7 212.8 574.0 212.5 573.9L211.9 573.7L212.5 573.0C212.9 572.6 213.5 572.1 213.8 572.0C214.2 571.8 214.7 571.5 215 571.4C215.3 571.2 216.2 570.8 217 570.4C217.8 570.0 219 569.3 219.7 568.9C220.3 568.6 222 567.6 223.4 566.9L226 565.6L225.3 564.8C224.9 564.4 224.3 564.0 224 564.0C223.7 564.0 223.2 563.8 223 563.5C222.8 563.2 222.4 563.0 222.2 563.0C221.9 563.0 220.7 562.3 219.4 561.5C218.2 560.7 217 560.0 216.8 560.0C216.6 560.0 216.2 559.8 216 559.5C215.8 559.2 215.3 559.0 215 559.0C214.7 559.0 214.2 558.8 214 558.5C213.8 558.3 213.3 558.0 212.9 557.9L212.2 557.8L212.1 557.1L212 556.3L212.5 556.1C212.8 556.0 213.3 556.2 213.6 556.5C214 556.8 214.4 557.0 214.6 557.0C214.8 557.0 215.6 557.4 216.4 558.0C217.1 558.5 218 559.0 218.2 559.0C218.4 559.0 218.8 559.2 219 559.5C219.2 559.8 219.7 560.0 220 560.0C220.3 560.0 220.8 560.2 221 560.5C221.2 560.8 221.7 561.0 222 561.0C222.3 561.0 222.8 561.2 223 561.5C223.2 561.8 223.6 562.0 223.9 562.0C224.2 562.0 224.8 562.3 225.2 562.7C225.7 563.0 226.3 563.3 226.6 563.3L227 563.3L227 554.7L226.9 546.0L226.5 545.1L226 544.3L226 536.8C226 532.7 225.9 529.2 225.8 528.9L225.6 528.4L224.5 528.8C223.8 529.0 223.1 529.4 222.9 529.6C222.7 529.8 222.4 530.0 222.2 530.0C221.9 530.0 221.2 530.4 220.5 530.9C219.8 531.5 218.9 532.0 218.7 532.1C218.4 532.2 217.9 532.5 217.6 532.7C216.4 533.3 215.8 533.7 214.5 534.4C213.8 534.8 213 535.3 212.7 535.5C212.5 535.8 212 536.0 211.7 536.0C211.3 536.0 211 536.2 210.9 536.5C210.8 536.8 210.4 537.0 210.1 537.0C209.7 537.0 209.2 537.2 209 537.5C208.8 537.8 208.3 538.0 208 538.0C207.7 538.0 207 538.4 206.5 539.0C206 539.5 205.3 540.0 205 540.0C204.7 540.0 204.2 540.2 204 540.5C203.8 540.8 203.4 541.0 203.1 541.0C202.9 541.0 201.7 541.7 200.5 542.5C199.3 543.3 198.1 544.0 197.9 544.0C197.6 544.0 197.2 544.2 197 544.5C196.8 544.7 196.3 545.0 195.9 545.1L195.2 545.2L195.2 545.8C195.2 546.2 195.6 546.7 196.2 547.1C197.1 547.6 197.3 547.7 198.3 548.1C198.6 548.2 199.1 548.5 199.3 548.6C199.6 548.8 200.1 549.0 200.3 549.1C200.6 549.2 201.1 549.5 201.3 549.6C201.6 549.8 202.1 550.0 202.3 550.1C203 550.4 203.9 551.0 205.3 552.0C206 552.5 206.8 553.0 207.2 553.0L207.8 553.2L207.9 554.1L208 555.0L207.6 555.0C207.3 555.0 207 554.8 206.9 554.5C206.8 554.2 206.4 554.0 206.1 554.0C205.7 554.0 205.2 553.8 205 553.5C204.8 553.2 204.3 553.0 204 553.0C203.7 553.0 203.2 552.8 203 552.5C202.8 552.2 202.3 552.0 202 552.0C201.7 552.0 201.3 551.8 201.1 551.6C200.7 551.2 199.9 550.7 197.4 549.5C196.5 549.1 195.6 548.5 195.5 548.3C195.4 548.1 194.9 548.0 194.4 548.0L193.4 548.0L193.2 548.8C193.1 549.2 193 553.1 193 557.6L193 565.7L192.6 566.4L192.2 567.2L192.1 574.8L191.9 582.4L192.3 582.7L192.7 583.1L193.2 582.6C193.6 582.4 194.4 581.9 195.2 581.5C195.9 581.2 196.7 580.8 197 580.6C197.3 580.5 197.8 580.2 198.2 580.0C198.6 579.8 199 579.5 199.2 579.4C199.3 579.2 199.6 579.0 200 579.0C200.3 579.0 200.8 578.8 201 578.5C201.2 578.2 201.7 578.0 202 578.0C202.3 578.0 202.8 577.8 203 577.5C203.2 577.2 203.7 577.0 204 577.0C204.3 577.0 204.8 576.8 205 576.5C205.2 576.2 205.7 576.0 206.1 576.0C206.4 576.0 206.8 575.8 206.9 575.5C207.2 574.7 208 574.9 208 575.8L208 576.5L207 577.3C206.5 577.7 205.9 578.0 205.7 578.0C205.6 578.0 205.2 578.2 205 578.5C204.8 578.8 204.3 579.0 204 579.0C203.7 579.0 203.2 579.2 203 579.5C202.8 579.8 202.3 580.0 202 580.0C201.7 580.0 201.2 580.2 201 580.5C200.8 580.8 200.3 581.0 200 581.0C199.7 581.0 199.2 581.2 199 581.5C198.8 581.8 198.3 582.0 198 582.0C197.7 582.0 197.2 582.2 197 582.5C196.8 582.7 196.3 583.0 196 583.1C195.6 583.1 195.3 583.3 195.3 583.5L195.3 583.8L201.6 584.0L207.8 584.2L207.8 585.0L207.8 585.8L201.9 585.9L195.9 586.0L196.1 586.4C196.2 586.6 196.5 586.9 196.9 586.9C197.3 587.0 197.8 587.3 198 587.5C198.2 587.8 198.7 588.0 199 588.0C199.3 588.0 199.8 588.2 200 588.5C200.2 588.8 200.7 589.0 201 589.0C201.3 589.0 201.8 589.2 202 589.5C202.2 589.8 202.8 590.0 203.2 590.0C203.6 590.0 204.1 590.2 204.3 590.5C204.6 590.8 205 591.0 205.3 591.0C205.7 591.0 206.1 591.2 206.3 591.5C206.6 591.8 206.9 592.0 207.1 592.0C207.6 592.0 208.7 593.0 208.7 593.6C208.7 593.8 208.4 594.0 208.1 594.0C207.6 594.0 203.7 592.2 201.1 590.7C200.8 590.5 200.2 590.2 199.8 590.0C199.4 589.8 199 589.5 198.8 589.4C198.7 589.2 198.3 589.0 197.9 589.0C197.5 589.0 196.9 588.8 196.5 588.5C196.2 588.2 195.6 588.0 195.3 588.0C195 588.0 194.6 587.8 194.4 587.6C194.2 587.4 193.5 587.0 192.9 586.8L191.7 586.4L191.4 586.8C191.2 587.0 191.1 591.3 191 596.4L190.9 605.7L190.5 606.8L190.1 607.8L190 614.6C189.9 622.3 190 622.7 191.5 621.5ZM210 574.5C210 574.2 210.2 574.0 210.5 574.0C210.8 574.0 211 574.2 211 574.5C211 574.8 210.8 575.0 210.5 575.0C210.2 575.0 210 574.8 210 574.5ZM196.3 543.0C197 542.4 197.9 542.0 198.1 542.0C198.4 542.0 198.8 541.8 199 541.5C199.2 541.2 199.6 541.0 199.9 541.0C200.1 541.0 201.3 540.3 202.5 539.5C203.7 538.7 204.9 538.0 205.1 538.0C205.4 538.0 205.8 537.8 206 537.5C206.2 537.2 206.6 537.0 206.9 537.0C207.2 537.0 207.9 536.6 208.4 536.2C209 535.8 209.8 535.3 210.2 535.2C210.6 535.1 211 534.8 211.1 534.5C211.2 534.2 211.6 534.0 212 534.0C212.3 534.0 212.7 533.8 212.8 533.6C213 533.5 213.4 533.2 213.8 533.0C214.5 532.7 214.8 532.5 217.3 530.9C218.1 530.4 218.9 530.0 219.1 530.0C219.4 530.0 219.8 529.8 220 529.5C220.2 529.2 220.6 529.0 220.7 529.0C221 529.0 222.8 527.8 223.8 526.9C224.2 526.6 222.8 525.0 222.1 525.0C221.9 525.0 220.7 524.3 219.5 523.5C218.3 522.7 217.2 522.0 217 522.0C216.8 522.0 216 521.5 215.3 521.0C214.6 520.4 213.9 520.0 213.7 520.0C213.3 520.0 212 518.4 212 517.8C212 517.1 212.6 517.2 213.9 518.2C214.5 518.6 215.1 519.0 215.3 519.0C215.4 519.0 215.8 519.2 216 519.5C216.2 519.8 216.6 520.0 216.9 520.0C217.2 520.0 218 520.4 218.6 520.9C220.1 522.0 221 522.6 221.9 523.0C222.2 523.1 223 523.7 223.6 524.2C224.2 524.7 224.9 525.0 225.2 524.9L225.7 524.7L225.4 524.1C225.2 523.8 225 520.3 225 516.3C224.9 505.9 224.9 505.9 224.4 505.1L224 504.4L224 497.3L224 490.3L223.5 490.1C222.8 489.9 222 490.3 219.6 492.1C219 492.6 218.2 493.0 217.9 493.0C217.7 493.0 217 493.4 216.5 494.0C216 494.6 215.3 495.0 215 495.0C214.7 495.0 214 495.4 213.5 496.0C213 496.6 212.4 497.0 212.1 497.0C211.6 497.0 208 499.4 207.2 500.3C206.8 500.7 206.3 501.0 206 501.0C205.7 501.0 205 501.4 204.5 502.0C204 502.6 203.3 503.0 203 503.0C202.7 503.0 202.3 503.2 202.1 503.4C201.9 503.6 201.4 503.9 201.1 504.1C199 505.3 197 506.8 197 507.3C197 507.8 198.3 509.0 198.9 509.0C199.1 509.0 200.3 509.7 201.5 510.5C202.7 511.3 203.8 512.0 204 512.0C204.2 512.0 204.8 512.4 205.4 513.0C206 513.5 206.8 514.0 207.2 514.0L207.8 514.2L207.9 515.1L208 516.0L207.6 516.0C207.3 516.0 206.5 515.5 205.7 515.0C205 514.4 204.2 514.0 204 514.0C203.8 514.0 203 513.5 202.3 513.0C201.6 512.4 200.9 512.0 200.7 512.0C200.6 512.0 200.2 511.8 200 511.5C199.8 511.2 199.3 511.0 199 511.0C198.7 511.0 198 510.6 197.5 510.0C196.4 508.9 195.5 508.7 195.2 509.5C195.1 509.8 195 513.6 195 517.9L195 525.7L194.6 526.4L194.2 527.2L194.1 535.1C193.9 544.9 193.8 544.8 196.3 543.0ZM104.1 528.9C104.1 528.5 104.3 528.2 104.5 528.2C104.7 528.2 104.9 528.5 104.9 528.9L105 529.7L104.5 529.7L104 529.7L104.1 528.9ZM197.6 504.5C198.8 503.6 202.7 501.0 203.1 501.0C203.4 501.0 204 500.6 204.5 500.0C205 499.4 205.7 499.0 206 499.0C206.3 499.0 207 498.6 207.5 498.0C208 497.4 208.8 497.0 209.3 497.0L210.1 497.0L212.4 495.0C213.8 494.0 215 493.0 215.2 493.0C215.4 492.9 217 491.9 218.8 490.7L222 488.5L222 488.0C222 487.6 221.6 487.1 221.1 486.7C219.1 485.1 217.2 483.8 216.3 483.3C215.7 483.0 214.9 482.4 214.5 482.0C214 481.6 213.3 481.1 212.9 480.9C212.5 480.7 212.1 480.1 212.1 479.7L212 479.0L212.8 479.0C213.2 479.0 213.9 479.4 214.4 479.9C214.8 480.3 215.7 481.0 216.3 481.4C217 481.8 218 482.5 218.6 483.1C219.2 483.6 219.9 484.0 220.1 484.0C220.3 484.0 221 484.5 221.5 485.0L222.6 486.1L223.2 485.9L223.7 485.7L223.5 485.1C223.3 484.8 223.1 480.1 223 474.8L222.8 465.2L222.4 464.4L222 463.7L222 457.5L222 451.4L221.6 451.1C221.4 451.0 221.1 451.2 220.9 451.5C220.8 451.8 220.4 452.0 220.1 452.0C219.7 452.0 218.8 452.7 218 453.5C217.2 454.3 216.3 455.0 216 455.0C215.7 455.0 215.2 455.4 214.7 455.8C214.3 456.3 213.1 457.2 212.1 457.9C211 458.6 209.8 459.6 209.4 460.1C209 460.6 208.4 461.0 208 461.0C207.7 461.0 206.8 461.7 206 462.5C205.2 463.3 204.4 464.0 204.2 464.0C204 464.0 203.1 464.7 202.1 465.5C201.2 466.3 200.2 467.0 199.9 467.0C199.4 467.0 198 468.2 198 468.6C198 468.7 198.6 469.2 199.4 469.6C200.2 470.0 201.2 470.7 201.7 471.2C202.1 471.6 202.7 472.0 203 472.0C203.3 472.0 204 472.4 204.5 473.0C205 473.6 205.6 474.0 205.7 474.0C205.9 474.0 206.5 474.3 207 474.7L208 475.5L208 476.2L208 477.0L207.5 477.0C207.2 477.0 206.9 476.8 206.8 476.5C206.7 476.2 206.3 476.0 206 476.0C205.7 476.0 205 475.6 204.5 475.0C204 474.4 203.4 474.0 203.1 474.0C202.9 474.0 201.9 473.3 200.9 472.5C199.9 471.7 198.9 471.0 198.6 471.0C198.3 471.0 197.9 470.8 197.8 470.6L197.6 470.3L197.3 470.7C197.1 471.0 197 474.4 197 478.4L197 485.7L196.6 486.4L196.2 487.2L196.1 495.6C195.9 505.3 196 506.0 197.6 504.5ZM199.3 465.5C199.6 465.2 199.9 465.0 200.2 465.0C200.4 465.0 200.8 464.7 201.2 464.3C201.5 463.9 202.6 463.1 203.5 462.5C204.4 461.9 205.7 460.9 206.3 460.2C206.9 459.5 207.7 459.0 208 459.0C208.3 459.0 209.2 458.3 210.2 457.5C211.1 456.7 212 456.0 212.2 456.0C212.4 456.0 213.2 455.3 214 454.5C214.8 453.7 215.7 453.0 216 453.0C216.3 453.0 217.2 452.3 218 451.5C218.8 450.7 219.7 450.0 220 450.0C221.3 450.0 221 449.2 218.8 447.2C217.6 446.1 215.9 444.8 215.2 444.3C213.5 443.2 212 441.6 212 440.9C212 440.1 212.8 440.2 213.7 441.2C214.1 441.6 214.6 442.0 214.9 442.0C215.1 442.0 216.3 442.9 217.4 444.0C218.6 445.1 219.7 446.0 219.8 446.0C220 446.0 220.4 446.3 220.7 446.6L221.3 447.1L221.7 446.8L222 446.5L221.5 445.2L221 444.0L221 435.3L221 426.5L220.6 425.3C220.4 424.7 220.2 421.9 220.1 419.2C220 413.6 219.8 412.7 219.3 412.7C219.1 412.7 217.5 414.1 215.7 415.8C213.9 417.6 212.3 419.0 212.1 419.0C211.9 419.0 209.6 421.0 207 423.5C204.3 426.0 202 428.0 201.8 428.0C201.6 428.0 201.1 428.4 200.7 428.8L200 429.6L202.2 431.7C203.4 432.9 204.7 434.0 205.1 434.1C206.3 434.5 208 436.4 208 437.2C208 438.3 207.5 438.2 206.4 437.0C206 436.4 205.4 436.0 205.1 436.0C204.8 436.0 203.7 435.1 202.5 434.0L200.4 431.9L199.8 432.1L199.2 432.2L199 439.2C198.8 443.0 198.6 447.2 198.4 448.5C198.2 449.8 198 454.2 198 458.4L198 466.0L198.5 466.0C198.7 466.0 199.1 465.8 199.3 465.5ZM195.5 381.7C195.3 381.3 195.9 380.9 196.3 381.2C196.7 381.4 196.5 382.0 196 382.0C195.8 382.0 195.6 381.9 195.5 381.7ZM212 378.7C212 378.6 213.2 377.2 214.7 375.7L217.5 373.0L217 372.6C216.8 372.4 216.2 372.1 215.7 372.1C213.8 372.0 213.7 372.0 213.7 371.5L213.7 371.0L215.6 371.0C217.8 371.0 218.4 370.6 217.3 370.0C216.4 369.5 214.7 367.8 213.7 366.3C213.2 365.7 212.7 365.0 212.4 364.9C211.9 364.6 211.9 363.3 212.4 363.3C212.7 363.3 213.9 364.4 215.1 365.7C216.4 366.9 217.5 368.0 217.7 368.0C217.9 368.0 218 364.5 218 359.9L218 351.7L217.6 351.4C217.4 351.3 214.2 351.1 210.6 351.1L204 351.1L203.5 351.7L202.9 352.4L203.5 353.4C203.8 354.0 205 355.4 206.1 356.6C207.9 358.5 208.5 359.7 207.6 359.7C207.3 359.7 206.1 358.6 204.8 357.3C203.6 356.1 202.4 355.1 202.3 355.2C202.1 355.3 202 358.4 202 362.2L202 369.0L201.7 369.2C201.1 369.5 201 368.7 200.9 360.2L200.8 351.9L200.1 351.4L199.5 351.0L181.7 351.1C171.9 351.2 163 351.2 162 351.0L160.2 350.8L160.2 350.0L160.2 349.2L160.9 349.1C161.3 349.0 161.8 348.7 162 348.5C162.2 348.2 162.7 348.0 163 348.0C163.3 348.0 163.8 347.8 164 347.5C164.2 347.2 164.7 347.0 165 347.0C165.3 347.0 165.8 346.8 166 346.5C166.2 346.2 166.7 346.0 167 346.0C167.3 346.0 167.8 345.8 168 345.5C168.2 345.2 168.7 345.0 169 345.0C169.3 345.0 169.8 344.8 170 344.5C170.2 344.2 170.7 344.0 171 344.0C171.3 344.0 171.8 343.8 172 343.5C172.2 343.2 172.7 343.0 173 343.0C173.3 343.0 173.8 342.8 174 342.5C174.2 342.2 174.7 342.0 175 342.0C175.3 342.0 175.8 341.8 176 341.5C176.2 341.2 176.7 341.0 177 341.0C177.3 341.0 177.8 340.8 178 340.5C178.2 340.2 178.7 340.0 179 340.0C179.3 340.0 179.8 339.8 180 339.5C180.2 339.2 180.7 339.0 181 339.0C181.3 339.0 181.8 338.8 182 338.5C182.2 338.2 182.7 338.0 183 338.0C183.3 338.0 183.8 337.8 184 337.5C184.2 337.2 184.7 337.0 185 337.0C185.3 337.0 185.8 336.8 186 336.5C186.2 336.2 186.7 336.0 187 336.0C187.3 336.0 187.8 335.8 188 335.5C188.2 335.2 188.7 335.0 189 335.0C189.3 335.0 189.8 334.8 190 334.5C190.2 334.2 190.7 334.0 191 334.0C191.3 334.0 191.8 333.8 192 333.5C192.2 333.2 192.7 333.0 193 333.0C193.3 333.0 193.8 332.8 194 332.5C194.2 332.2 194.7 332.0 195 332.0C195.3 332.0 195.8 331.8 196 331.5C196.2 331.3 197.3 331.0 198.3 330.8C199.4 330.7 200.4 330.4 200.6 330.2C200.7 330.0 200.8 315.5 200.9 297.9C201 260.8 200.9 265.3 201.5 265.3L202 265.3L202 267.4C202 268.6 202.1 269.7 202.2 269.8C202.3 269.9 203.2 269.3 204 268.5C205.6 267.1 206.4 266.7 206.8 267.3C206.9 267.4 206.1 268.4 205 269.5C203.9 270.6 203 271.7 203 271.9C203 272.5 206.6 277.2 208.2 278.7C208.9 279.3 209.6 280.2 209.8 280.7C210 281.2 211.3 282.8 212.7 284.3C214 285.8 215.6 287.6 216.2 288.4C216.7 289.2 217.3 289.8 217.5 289.8L217.8 289.8L217.9 278.9L218 268.0L218.5 268.0L219 268.0L219 269.1C219 269.7 219.1 283.6 219.1 299.9L219.2 329.6L219.7 330.2C220 330.5 221 330.8 221.9 330.9C222.9 331.0 223.8 331.3 224 331.5C224.2 331.8 224.7 332.0 225 332.0C225.3 332.0 225.8 332.2 226 332.5C226.2 332.8 226.7 333.0 227 333.0C227.3 333.0 227.8 333.2 228 333.5C228.2 333.8 228.7 334.0 229 334.0C229.3 334.0 229.8 334.2 230 334.5C230.2 334.8 230.7 335.0 231 335.0C231.3 335.0 231.8 335.2 232 335.5C232.2 335.8 232.7 336.0 233 336.0C233.3 336.0 233.8 336.2 234 336.5C234.2 336.8 234.7 337.0 235 337.0C235.3 337.0 235.8 337.2 236 337.5C236.2 337.8 236.7 338.0 237 338.0C237.3 338.0 237.8 338.2 238 338.5C238.2 338.8 238.7 339.0 239 339.0C239.3 339.0 239.8 339.2 240 339.5C240.2 339.8 240.7 340.0 241 340.0C241.3 340.0 241.8 340.2 242 340.5C242.2 340.8 242.7 341.0 243 341.0C243.3 341.0 243.8 341.2 244 341.5C244.2 341.8 244.7 342.0 245 342.0C245.3 342.0 245.8 342.2 246 342.5C246.2 342.8 246.7 343.0 247 343.0C247.3 343.0 247.8 343.2 248 343.5C248.2 343.8 248.7 344.0 249 344.0C249.3 344.0 249.8 344.2 250 344.5C250.2 344.8 250.7 345.0 251 345.0C251.3 345.0 251.8 345.2 252 345.5C252.2 345.8 252.7 346.0 253 346.0C253.3 346.0 253.8 346.2 254 346.5C254.2 346.8 254.7 347.0 255 347.0C255.3 347.0 255.8 347.2 256 347.5C256.2 347.8 256.7 348.0 257 348.0C257.3 348.0 257.8 348.2 258 348.5C258.2 348.8 258.7 349.0 259 349.0C259.8 349.0 261 350.4 261 351.3C261 352.0 260.2 352.3 259.9 351.6L259.8 351.2L239.8 351.2L219.8 351.3L219.4 351.9L219 352.5L219.1 360.6C219.2 365.1 219.2 369.1 219 369.7C218.9 370.2 218.8 370.7 218.9 370.8C219.2 371.1 219.3 374.9 219 375.4L218.7 375.8L218.1 375.4L217.4 375.1L215.5 377.0L213.5 379.0L212.8 379.0C212.3 379.0 212 378.9 212 378.7ZM200 376.8C200 376.7 200.2 376.3 200.5 375.8L201.1 375.0L200.9 373.7C200.8 373.0 200.8 372.0 201 371.5L201.3 370.6L201.8 371.0L202.3 371.4L202.1 373.6C201.9 375.8 201.3 377.0 200.4 377.0C200.2 377.0 200 376.9 200 376.8ZM204 371.9C203.5 371.2 203.9 371.0 206.1 371.0L208 371.0L208 371.5C208 371.7 207.5 372.0 206.8 372.1C204.9 372.4 204.5 372.4 204 371.9ZM200.9 341.4C200.9 336.7 200.9 332.7 200.8 332.4C200.5 331.9 198.8 331.9 197.7 332.5C195.6 333.6 185.2 338.8 184.3 339.1C184.1 339.2 183.6 339.5 183.3 339.6C183.1 339.8 181.7 340.5 180.3 341.2C179 341.8 177.6 342.5 177.3 342.7C176.7 343.0 174.1 344.3 171 345.8C169.6 346.5 168.3 347.2 168 347.4C167.7 347.5 167.3 347.8 167 347.9C166.7 348.0 166.1 348.3 165.6 348.5C165.1 348.8 164.5 349.0 164.2 349.0C163.6 349.0 163.5 349.4 163.9 349.8C164 349.9 172.4 350.0 182.5 349.9L200.8 349.8L200.9 341.4ZM206.7 345.5C207.3 344.6 209.4 342.3 211.2 340.3C213.1 338.3 214.7 336.5 214.7 336.3C214.7 336.1 215.2 335.4 215.9 334.7C216.5 333.9 217 333.1 216.9 332.8L216.8 332.2L213.9 332.1L211 332.0L211 331.5L211 331.0L212.9 330.9L214.8 330.8L214.9 330.2L215 329.5L213.5 327.9C212.1 326.5 211.6 325.3 212.2 324.9C212.4 324.8 213.5 325.9 214.8 327.3C216.1 328.8 217.3 329.9 217.5 329.9L217.8 329.8L217.9 312.7C218 303.2 217.9 295.4 217.7 295.3C217.6 295.1 216.7 295.7 215.9 296.7C215 297.6 214.1 298.3 214 298.2C213.3 297.8 213.7 296.9 215.3 295.2L217 293.4L217 292.5L217 291.5L215.6 290.2C214.9 289.4 214 288.3 213.7 287.7C213.3 287.0 212 285.4 210.7 284.0C209.4 282.7 208.3 281.5 208.3 281.3C208.3 281.1 207.2 279.8 205.9 278.4C204.5 277.0 203.3 275.5 203.2 275.0C203.1 274.6 202.8 274.4 202.6 274.4L202.2 274.6L202.1 292.0C202 301.6 202.1 309.6 202.3 309.7C202.6 310.1 204.5 308.2 206.6 305.3L208.2 303.2L208.9 303.1L209.7 303.0L209.7 303.6C209.7 304.2 206.5 308.2 204.2 310.3L203 311.5L203 312.5L203 313.4L205.2 315.8C206.5 317.2 207.8 318.8 208.2 319.5L209 320.7L208.4 320.9C207.7 321.2 207 320.7 205.8 318.8C204.4 316.7 202.6 314.9 202.3 315.3C202.1 315.4 202 319.0 202.1 323.2L202.2 330.8L204.9 330.7L207.5 330.6L208 331.1L208.4 331.7L208 331.8C207.7 331.9 206.3 332.0 204.8 332.1L202.2 332.2L202.1 340.7C202 345.3 202.1 349.4 202.2 349.6L202.4 350.1L203.9 348.6C204.8 347.7 206 346.3 206.7 345.5ZM217.9 342.7C218 338.7 217.9 335.4 217.7 335.2L217.4 334.9L216.3 336.6C215.7 337.4 214 339.5 212.5 341.0C211 342.6 209.4 344.5 208.8 345.3C208.3 346.1 207.2 347.3 206.4 348.0C205.6 348.8 205.1 349.5 205.2 349.7L205.4 350.0L211.6 349.9L217.8 349.8L217.9 342.7ZM256.2 349.7C256.3 349.5 255.6 349.0 254.8 348.6C253.9 348.2 252.9 347.8 252.7 347.6C252 347.3 249.6 346.1 249 345.9C248.7 345.8 248.3 345.5 248 345.4C247.2 345.0 244.7 343.7 238.7 340.7C235.6 339.2 232.9 337.8 232.7 337.6C232.4 337.5 231.5 337.0 230.7 336.7C229.8 336.3 228.9 335.8 228.7 335.7C223.2 332.6 220.2 331.5 219.4 332.4L219.1 332.8L219.2 341.3C219.2 346.0 219.3 349.9 219.3 349.9C219.3 350.0 227.6 350.0 237.6 350.0L256 350.0L256.2 349.7ZM208 265.6C208 265.0 209.1 264.0 209.6 264.0C210.2 264.0 210.1 264.8 209.4 265.4C208.7 266.1 208 266.2 208 265.6ZM262.2 263.8C261.8 263.3 262.5 263.0 264 263.0L265.7 263.0L265.7 263.5L265.7 264.0L264.1 264.0C263.2 264.0 262.3 263.9 262.2 263.8ZM213.5 258.6C213.3 258.4 214 257.5 215.1 256.4C216.2 255.4 217 254.5 217 254.4C217 254.2 216 254.0 214.8 253.9C212.5 253.7 211.8 253.4 212.1 252.5L212.3 252.0L214.7 252.0C215.9 252.0 217 251.9 217 251.8C217 251.6 215.9 250.4 214.5 249.0L212 246.5L212 245.6C212 244.2 212.4 244.4 214.9 246.8C216.1 248.0 217.3 249.0 217.6 249.0L218 249.0L217.9 241.1L217.8 233.2L214.9 233.1L212 233.0L212 232.5L212 232.0L212.9 231.9C213.4 231.9 214.7 231.9 215.8 231.9L217.8 231.8L217.9 223.9C218 219.2 217.9 216.0 217.7 216.0C217.5 216.0 216.4 217.0 215.1 218.3C213.9 219.6 212.7 220.7 212.4 220.7C211.6 220.7 212 219.6 213.5 218.1C214.3 217.2 215 216.3 215 216.1C215 215.9 215.3 215.5 215.7 215.2C216.7 214.2 216.5 214.0 214.7 214.0C213.8 214.0 212.8 213.8 212.5 213.5L211.9 213.1L212.1 212.5L212.3 212.0L215.2 212.0C216.7 212.0 218 211.9 218 211.7C218 211.4 202.8 196.2 202.3 196.1L202 195.9L202.1 203.9L202.2 211.8L205 212.0L207.8 212.2L207.8 213.0L207.8 213.8L205 214.0L202.2 214.2L202.1 222.1C202 226.6 202.1 230.0 202.3 230.0C202.8 230.0 206.4 225.6 206.9 224.5C207 224.2 207.3 224.0 207.5 224.0L208 224.0L208 225.2L208 226.3L205.8 228.6C204.6 229.9 203.7 231.1 203.7 231.3C203.7 231.8 204.9 232.1 205.7 231.8C206.7 231.5 208 231.9 208 232.5L208 233.0L205.2 233.0L202.3 233.0L202.1 233.6L201.9 234.1L205 237.0L208 239.8L208 240.9C208 242.4 207.7 242.3 205 239.5C203.6 238.1 202.4 237.0 202.3 237.0C202.1 237.0 202 240.3 202.1 244.4L202.2 251.8L205 252.0L207.8 252.2L207.8 253.0L207.8 253.8L205.2 253.8C202.1 253.8 202 253.9 202 256.2C202 257.9 201.6 258.7 201.2 258.0C201.1 257.9 200.9 256.7 200.8 255.5C200.7 254.2 200.5 253.1 200.4 252.9C200.2 252.7 200.1 248.2 200 243.0C200 237.8 199.9 233.5 199.8 233.3C199.7 233.1 184 233.0 163.8 233.0L128 233.0L128.1 232.1L128.2 231.2L129.9 231.1L131.7 231.0L131.9 230.5L132.1 230.0L133.5 230.0C134.2 230.0 135.2 229.8 135.5 229.5C135.9 229.2 136.7 229.0 137.4 229.0C138 229.0 138.8 228.8 139 228.5C139.2 228.2 140 228.0 140.6 228.0C141.3 228.0 142.2 227.8 142.5 227.5C142.9 227.2 143.7 227.0 144.4 227.0C145 227.0 145.8 226.8 146 226.5L146.4 226.0L148 226.0L149.6 226.0L150 225.5C150.2 225.2 151 225.0 151.6 225.0C152.3 225.0 153.2 224.8 153.5 224.5C153.9 224.2 154.7 224.0 155.4 224.0C156 224.0 156.8 223.8 157.2 223.5C157.5 223.2 158.5 223.0 159.2 223.0C160 223.0 160.8 222.8 161 222.5C161.2 222.2 161.9 222.0 162.5 222.0C163 222.0 163.9 221.8 164.3 221.5C164.8 221.2 165.7 221.0 166.3 221.0C167 221.0 167.8 220.8 168.1 220.5C168.5 220.2 169.3 220.0 170 220.0C170.7 220.0 171.4 219.8 171.7 219.5C171.9 219.2 172.6 219.0 173.3 219.0C174 219.0 174.9 218.8 175.3 218.5C175.8 218.2 176.7 218.0 177.4 218.0C178 218.0 178.8 217.8 179 217.5C179.2 217.2 180 217.0 180.6 217.0C181.3 217.0 182.2 216.8 182.5 216.5C182.9 216.2 183.7 216.0 184.3 216.0C185 216.0 185.9 215.8 186.3 215.5C186.8 215.2 187.7 215.0 188.4 215.0C189 215.0 189.8 214.8 190 214.5L190.4 214.0L191.8 214.0L193.3 214.0L193.7 213.5C193.9 213.2 194.6 213.0 195.3 213.0C196 213.0 196.8 212.8 197.1 212.5C197.5 212.2 198.2 212.0 198.7 212.0C199.3 212.0 199.8 211.8 199.9 211.5C200 211.2 200.1 197.1 200.1 180.1L200.2 149.2L201 149.2L201.8 149.2L201.9 150.6C202.1 152.3 202.1 152.3 203.7 150.8C206.2 148.6 206.9 149.7 204.5 152.1L203 153.6L203 154.5L203 155.4L205.4 158.1C206.7 159.6 208.2 161.5 208.6 162.2L209.3 163.6L209 163.9L208.6 164.1L206 161.5C204.6 160.0 203.3 158.4 203.1 157.9C202.9 157.4 202.5 157.0 202.3 157.0L202 157.0L202 174.0C202 183.3 202.1 191.0 202.3 191.0C202.6 191.0 206.9 186.6 207.3 185.8C207.5 185.3 208 185.0 208.3 185.0C209.1 185.0 209.2 185.8 208.5 186.1C208.2 186.2 208 186.6 208 186.9C208 187.2 206.8 188.7 205.3 190.2C203.9 191.7 202.7 193.2 202.7 193.5C202.7 194.1 217.2 209.0 217.7 209.0C217.9 209.0 218 201.8 218 193.0C218 184.2 217.9 177.0 217.7 177.0C217.6 177.0 216.4 178.0 215.2 179.3C213.9 180.6 212.7 181.7 212.4 181.7C211.5 181.7 212.1 180.5 214.4 178.1C215.7 176.8 217 175.3 217.1 175.0L217.4 174.4L217 173.7C216.7 173.4 215.9 172.4 215.3 171.6C214.6 170.8 213.9 169.6 213.8 169.1L213.6 168.0L214.2 168.0C214.6 168.0 215.4 168.7 216 169.5C216.6 170.3 217.4 171.0 217.6 171.0L218 171.0L218.1 160.1L218.2 149.2L219 149.2L219.8 149.2L220 180.5L220.2 211.8L221.4 211.9C222.1 212.0 222.8 212.3 223 212.5C223.2 212.8 224 213.0 224.6 213.0C225.3 213.0 226.1 213.2 226.5 213.5C226.8 213.8 227.7 214.0 228.4 214.0C229 214.0 229.8 214.2 230 214.5L230.4 215.0L232 215.0L233.6 215.0L234 215.5C234.2 215.8 235 216.0 235.6 216.0C236.3 216.0 237.1 216.2 237.5 216.5C237.8 216.8 238.7 217.0 239.4 217.0C240 217.0 240.8 217.2 241 217.5L241.4 218.0L243 218.0L244.6 218.0L245 218.5L245.4 219.0L246.8 219.0L248.3 219.0L248.7 219.5C248.9 219.8 249.6 220.0 250.3 220.0C251 220.0 251.8 220.2 252 220.5C252.2 220.8 253 221.0 253.8 221.0C254.5 221.0 255.5 221.2 255.8 221.5C256.2 221.8 257 222.0 257.7 222.0C258.4 222.0 259.1 222.2 259.3 222.5C259.6 222.8 260.3 223.0 261 223.0C261.7 223.0 262.5 223.2 262.9 223.5C263.2 223.8 264 224.0 264.7 224.0C265.3 224.0 266.1 224.2 266.5 224.5C266.8 224.8 267.8 225.0 268.5 225.0C269.4 225.0 270.1 225.2 270.3 225.5C270.6 225.8 271.3 226.0 272 226.0C272.6 226.0 273.5 226.2 273.8 226.5C274.2 226.8 275 227.0 275.7 227.0C276.4 227.0 277.1 227.2 277.3 227.5C277.6 227.8 278.3 228.0 279.1 228.0C279.9 228.0 280.8 228.2 281.1 228.5C281.5 228.8 282.3 229.0 283 229.0C283.6 229.0 284.5 229.2 284.8 229.5C285.2 229.8 286 230.0 286.7 230.0C287.4 230.0 288.1 230.2 288.3 230.5C288.6 230.8 289.3 231.0 290.1 231.0L291.5 231.0L292.2 231.6C292.7 232.0 293 232.6 293 233.0C293 233.7 292.4 233.9 291.8 233.3L291.5 233.0L255.8 233.1L220.2 233.2L220 243.2L219.8 253.2L219.4 254.0C219.1 254.4 219 255.0 219.1 255.4C219.2 255.8 219.2 256.8 219.1 257.6L218.9 259.0L218.5 259.0C218.2 259.0 218 258.7 218 258.2C218 256.9 217.4 256.9 216.1 258.0C214.9 259.0 213.9 259.3 213.5 258.6ZM292 257.5C292 257.2 292.2 257.0 292.5 257.0C292.8 257.0 293 257.2 293 257.5C293 257.8 292.8 258.0 292.5 258.0C292.2 258.0 292 257.8 292 257.5ZM104.1 249.1C104.1 247.6 104.3 246.5 104.5 246.5C104.7 246.5 104.9 247.6 104.9 249.1L105 251.7L104.5 251.7L104 251.7L104.1 249.1ZM127.2 239.4C126.8 239.0 127 238.3 127.5 238.3C127.8 238.3 128 238.5 128 238.8C128 239.4 127.5 239.7 127.2 239.4ZM107 232.5L107 232.0L108 232.0L109 232.0L109 232.5L109 233.0L108 233.0L107 233.0L107 232.5ZM209.9 232.8C209.6 232.5 209.9 232.0 210.4 232.0C210.5 232.0 210.7 232.2 210.7 232.5C210.7 233.0 210.3 233.2 209.9 232.8ZM166.9 231.6C167 231.4 167.1 225.3 167 223.2C167 222.8 163.5 223.0 162.9 223.5C162.5 223.8 161.7 224.0 161.2 224.0C160.6 224.0 159.8 224.2 159.5 224.5C159.1 224.8 158.3 225.0 157.6 225.0C157 225.0 156.2 225.2 155.8 225.5C155.5 225.8 154.5 226.0 153.8 226.0C153 226.0 152.2 226.2 152 226.5C151.8 226.8 151 227.0 150.4 227.0C149.7 227.0 148.8 227.2 148.5 227.5C148.1 227.8 147.3 228.0 146.6 228.0C146 228.0 145.2 228.2 145 228.5C144.8 228.8 144 229.0 143.4 229.0C142.7 229.0 141.8 229.2 141.5 229.5C141.1 229.8 140.3 230.0 139.6 230.0C139 230.0 138.2 230.2 137.8 230.5C137.5 230.8 136.7 231.0 136.1 231.0C135.1 231.0 134.7 231.3 135.1 231.7C135.2 231.8 142.3 231.9 151 231.9L166.6 232.0L166.9 231.6ZM191.9 231.6C192 231.4 189.4 230.0 188.8 230.0C188.6 230.0 188.2 229.8 188 229.5C187.8 229.2 187.3 229.0 186.9 229.0C186.6 229.0 185.8 228.8 185.3 228.5C184.8 228.2 183.9 227.8 183.4 227.5C182.8 227.2 182.2 227.0 181.9 227.0C181.6 227.0 181.2 226.8 181 226.5C180.8 226.2 180.2 226.0 179.7 226.0C179.2 226.0 178.5 225.8 178.2 225.5C177.8 225.2 177.3 225.0 177 225.0C176.7 225.0 176.2 224.8 176 224.5C175.8 224.2 175.3 224.0 174.9 224.0C174.5 224.0 173.8 223.8 173.5 223.5C173.1 223.2 172.5 223.0 172.1 223.0C171.7 223.0 171.2 222.8 171 222.5C170.8 222.2 170.2 222.0 169.9 222.1L169.2 222.2L169.1 226.6C169 229.1 169.1 231.3 169.1 231.6L169.3 232.0L180.5 231.9C186.7 231.9 191.8 231.7 191.9 231.6ZM199.7 231.4C199.9 231.2 200.2 216.7 200 214.4L200 214.0L198.2 214.0C197.2 214.0 196.2 214.2 195.9 214.5C195.5 214.8 194.6 215.0 193.8 215.0C193 215.0 192.2 215.2 192 215.5C191.8 215.8 191 216.0 190.4 216.0C189.7 216.0 188.8 216.2 188.5 216.5C188.1 216.8 187.2 217.0 186.5 217.0C185.7 217.0 184.8 217.2 184.5 217.5C184.1 217.8 183.3 218.0 182.6 218.0C182 218.0 181.2 218.2 181 218.5C180.8 218.8 180.1 219.0 179.5 219.0C178.9 219.0 178.2 219.2 177.8 219.5C177.5 219.8 176.5 220.0 175.8 220.0L174.4 220.0L173.5 220.7C172.6 221.5 172.7 222.0 173.8 222.0C174.2 222.0 174.8 222.2 175 222.5C175.2 222.8 175.7 223.0 176.1 223.0C176.5 223.0 177.2 223.2 177.5 223.5C177.9 223.8 178.5 224.0 178.9 224.0C179.3 224.0 179.8 224.2 180 224.5C180.2 224.8 180.8 225.0 181.2 225.0C181.6 225.0 182 225.1 182 225.3C182 225.5 182.6 225.8 183.3 226.0C184 226.2 184.7 226.5 184.8 226.7C184.9 226.9 185.4 227.0 185.8 227.0C186.2 227.0 186.8 227.2 187 227.5C187.2 227.8 187.8 228.0 188.2 228.0C188.6 228.0 189.1 228.2 189.3 228.5C189.6 228.8 190.2 229.0 190.7 229.0C191.2 229.0 191.8 229.2 192 229.5C192.2 229.8 192.8 230.0 193.2 230.0C193.6 230.0 194 230.2 194.1 230.5L194.3 231.0L195.4 231.0C196 231.0 196.8 231.2 197.1 231.5L197.8 232.0L198.6 231.8C199.1 231.7 199.6 231.5 199.7 231.4ZM223.7 231.3C224 231.1 224.6 231.0 224.9 231.0C225.3 231.0 225.8 230.8 226 230.5C226.2 230.2 226.7 230.0 227 230.0C227.3 230.0 227.8 229.8 228 229.5C228.2 229.2 228.8 229.0 229.2 229.0C229.6 229.0 230.1 228.8 230.3 228.5C230.6 228.2 231.2 228.0 231.7 228.0C232.2 228.0 232.8 227.8 233 227.5C233.2 227.2 233.7 227.0 234 227.0C234.3 227.0 234.8 226.8 235 226.5C235.2 226.2 235.8 226.0 236.3 226.0C236.8 226.0 237.4 225.8 237.7 225.5C237.9 225.2 238.4 225.0 238.8 225.0C239.2 225.0 239.8 224.8 240 224.5C240.2 224.2 240.7 224.0 241.1 224.0C241.5 224.0 242.1 223.8 242.5 223.5C242.8 223.2 243.5 223.0 243.9 223.0C244.3 223.0 244.8 222.8 245 222.5C245.2 222.2 245.7 222.0 246 222.0C246.4 222.0 246.7 221.8 246.9 221.6C247.2 221.0 245.6 220.0 244.3 220.0C243.7 220.0 242.8 219.8 242.3 219.5C241.9 219.2 241 219.0 240.3 219.0C239.7 219.0 238.9 218.8 238.5 218.5C238.2 218.2 237.3 218.0 236.6 218.0C236 218.0 235.2 217.8 235 217.5C234.8 217.2 234 217.0 233.4 217.0C232.7 217.0 231.9 216.8 231.5 216.5C231.2 216.2 230.3 216.0 229.6 216.0C229 216.0 228.2 215.8 228 215.5C227.8 215.2 227 215.0 226.2 215.0C225.4 215.0 224.5 214.8 224.1 214.5L223.3 214.0L221.8 214.1L220.2 214.2L220.1 222.8L220 231.5L220.4 231.7C220.8 232.0 222.9 231.7 223.7 231.3ZM250.9 227.0L251 222.3L250.5 222.1C250.2 222.0 249.7 222.1 249.4 222.3C249.1 222.5 248.6 222.8 248.3 222.9C248.1 223.0 247.4 223.3 246.9 223.5C246.4 223.8 245.6 224.0 245.2 224.0C244.8 224.0 244.2 224.2 244 224.5C243.8 224.8 243.3 225.0 243 225.0C242.7 225.0 242.2 225.2 242 225.5C241.8 225.8 241.3 226.0 240.9 226.0C240.5 226.0 239.8 226.2 239.5 226.5C239.1 226.8 238.5 227.0 238.1 227.0C237.7 227.0 237.2 227.2 237 227.5C236.8 227.8 236.3 228.0 235.9 228.0C235.6 228.0 234.9 228.2 234.4 228.4C233.5 228.9 231.5 229.8 230.7 230.1C230.4 230.2 229.9 230.5 229.7 230.6C229.4 230.8 228.9 231.0 228.6 231.1C226.8 231.7 229.3 231.8 239.6 231.8L250.8 231.8L250.9 227.0ZM284.7 231.5C284.7 231.3 284.3 231.1 283.8 231.0C283.3 230.9 282.5 230.6 282.1 230.4C281.7 230.2 280.9 230.0 280.4 230.0C279.9 230.0 279.2 229.8 279 229.5L278.6 229.0L277 229.0L275.4 229.0L275 228.5C274.8 228.2 274 228.0 273.4 228.0C272.7 228.0 271.9 227.8 271.5 227.5C271.2 227.2 270.3 227.0 269.6 227.0C269 227.0 268.2 226.8 268 226.5C267.8 226.2 267 226.0 266.2 226.0C265.5 226.0 264.5 225.8 264.2 225.5C263.8 225.2 263 225.0 262.4 225.0C261.7 225.0 260.9 224.8 260.5 224.5C260.2 224.2 259.4 224.0 258.7 224.0C258.1 224.0 257.3 223.8 257 223.5C256.7 223.3 255.8 223.0 254.8 222.9L253.2 222.8L253.1 227.0C253 229.3 253 231.3 253.1 231.5L253.2 231.8L269 231.8L284.7 231.8L284.7 231.5ZM212.2 142.8C211.7 142.2 212.2 141.4 214.9 138.6C216.5 137.0 217.8 135.6 217.8 135.5C217.8 135.4 216.4 133.9 214.9 132.3L212 129.4L212 128.7C212 127.6 212.3 127.8 215 130.5C216.4 131.9 217.6 133.0 217.7 133.0C217.9 133.0 218 129.4 217.9 125.1L217.8 117.2L215 117.0L212.2 116.8L212.2 116.0L212.2 115.2L215 115.0L217.8 114.8L217.9 107.1L218 99.3L217.5 99.3C217.3 99.3 216.9 99.7 216.8 100.1C216.5 101.0 213 104.7 212.4 104.7C211.8 104.7 211.9 103.4 212.5 103.1C212.8 103.0 213.6 102.0 214.3 100.9C215 99.7 215.8 98.6 216.1 98.4C217 97.6 216.8 97.2 215.4 97.1C214.7 97.1 213.6 97.0 212.8 96.9L211.5 96.6L212.2 96.3C212.5 96.2 213.7 96.0 214.7 96.0C215.8 96.0 216.7 95.9 216.8 95.7C216.9 95.6 215.4 93.9 213.5 91.9C211.6 89.9 210 88.1 210 87.9C210 87.5 202.7 80.0 202.3 80.0C202.1 80.0 202 83.6 202.1 87.9L202.2 95.8L205.6 95.9L209 96.0L209 96.5C209 96.8 208.7 97.0 208.4 97.0C205.8 97.0 202.7 97.3 202.4 97.5L202 97.7L202 105.8C202 110.3 202.1 114.0 202.3 114.1C202.4 114.2 203.6 113.1 204.8 111.7C206.1 110.2 207.4 109.0 207.6 109.0C208.5 109.0 207.9 110.5 206.3 112.3C204.4 114.6 204.4 115.0 206.5 115.0L208 115.0L208 115.4C208 115.7 207.7 116.1 207.4 116.4L206.8 117.0L205 117.0L203.3 117.0L203.1 117.6L202.9 118.1L204.4 119.5L206 120.9L206.2 121.9L206.4 123.0L205.9 123.0C205.6 123.0 204.7 122.3 204 121.5C203.2 120.7 202.5 120.0 202.3 120.0C202.2 120.0 202 123.3 201.9 127.2C201.7 137.2 201.4 140.0 200.5 140.0L200 140.0L199.9 128.6L199.8 117.2L194 117.1L188.2 117.0L187.6 116.4C187.3 116.1 187 115.7 187 115.4L187 115.0L193.3 115.0L199.6 115.0L200.2 114.3L200.8 113.7L200.4 112.8L200 112.0L200 104.8L200 97.7L199.7 97.5C199.3 97.3 197.3 97.8 196.3 98.4C196.1 98.5 195.5 98.8 195.1 99.0C194.7 99.2 194.3 99.5 194.2 99.6C194.1 99.8 193.7 100.0 193.4 100.0C193 100.0 192.6 100.2 192.3 100.5C192.1 100.8 191.7 101.0 191.3 101.0C191 101.0 190.6 101.2 190.3 101.5C190.1 101.8 189.6 102.0 189.2 102.0C188.8 102.0 188.2 102.2 188 102.5C187.8 102.8 187.4 103.0 187.2 103.0C186.9 103.0 186.6 103.2 186.3 103.5C186.1 103.8 185.6 104.0 185.2 104.0C184.8 104.0 184.2 104.2 184 104.5C183.8 104.7 183.3 105.0 182.8 105.1C182.4 105.3 182 105.5 182 105.7C182 105.9 181.7 106.0 181.4 106.0C181 106.0 180.6 106.2 180.3 106.5C180.1 106.8 179.7 107.0 179.3 107.0C179 107.0 178.6 107.2 178.3 107.5C178.1 107.8 177.6 108.0 177.3 108.0C177 108.0 176.5 108.2 176.2 108.5C175.9 108.8 175.4 109.0 175.1 109.0C174.7 109.0 174.2 109.2 174 109.5C173.8 109.8 173.3 110.0 173 110.0C172.7 110.0 172.2 110.2 172 110.5C171.8 110.8 171.3 111.0 171 111.0C170.7 111.0 170.2 111.2 170 111.5C169.8 111.8 169.4 112.0 169.2 112.0C169 112.0 168.1 112.4 167.3 112.8C165.8 113.7 165.4 113.9 164.5 114.2C163.5 114.5 164 115.0 165.2 115.0C165.9 115.0 166.7 115.3 167.1 115.6L167.7 116.1L168.7 115.6L169.7 115.0L175.4 115.0L181 115.0L181 115.4C181 115.7 180.7 116.2 180.4 116.5L179.7 117.0L173.5 116.9C170 116.8 166.9 116.7 166.7 116.7C166.4 116.7 165 116.8 163.5 116.9L160.8 117.1L160.2 116.3L159.5 115.6L160.5 114.8C161.1 114.4 161.7 114.0 162 114.0C162.3 114.0 162.8 113.8 163 113.5C163.2 113.2 163.6 113.0 163.8 113.0C164.1 113.0 164.4 112.8 164.7 112.5C164.9 112.2 165.3 112.0 165.7 112.0C166 112.0 166.4 111.8 166.7 111.5C166.9 111.2 167.4 111.0 167.9 111.0C168.3 111.0 168.7 110.9 168.8 110.7C168.9 110.5 170.3 109.8 171.9 109.0C173.5 108.2 175.4 107.2 176.1 106.8C176.8 106.4 177.5 106.0 177.8 106.0C178 106.0 178.4 105.8 178.7 105.5C178.9 105.2 179.3 105.0 179.6 105.0C179.9 105.0 180.8 104.5 181.7 104.0C182.6 103.5 183.6 103.0 184 103.0C184.3 103.0 184.7 102.9 184.8 102.7C184.9 102.5 186.2 101.8 187.7 101.0C189.3 100.3 190.7 99.5 191 99.4C191.3 99.2 192.5 98.6 193.8 98.0C195.1 97.4 196.4 96.7 196.7 96.5C196.9 96.2 197.8 96.0 198.5 95.9L199.8 95.8L199.9 85.5L200 75.3L200.8 74.6C201.3 74.2 201.9 73.5 202.2 72.9C202.5 72.3 203.3 71.2 203.9 70.5C204.5 69.8 205 69.0 205 68.8C205 68.6 205.4 68.0 206 67.5C206.5 67.0 207 66.3 207 66.1C207 65.9 207.2 65.7 207.5 65.7L208 65.7L208 66.6C208 67.2 207.8 67.8 207.5 68.0C207.2 68.2 207 68.6 207 68.8C207 69.0 206.3 70.0 205.5 71.0C204.7 71.9 204 72.9 204 73.2C204 73.4 203.8 73.8 203.5 73.9C202.4 74.5 203.4 75.0 205.7 75.0L208 75.0L208 75.5C208 76.2 206.6 76.5 204.5 76.2L202.6 76.0L202.5 76.5C202.2 77.2 203.9 79.4 208.1 83.7C210.2 85.8 212.1 87.9 212.4 88.4C213.2 89.6 217.3 94.0 217.7 94.0C217.9 94.0 218 90.1 218 85.3L218 76.6L217.5 76.5C217.3 76.4 216 76.3 214.6 76.2L212.2 76.2L212.1 75.6L212 75.0L214.9 74.9L217.8 74.8L217.8 65.5L217.8 56.2L217 56.1L216.1 56.0L215.5 56.7C215.2 57.0 214.8 57.3 214.6 57.3C214.1 57.3 214.3 56.4 214.8 56.2L215.4 56.0L215.3 55.1L215.2 54.2L217.2 54.1L219.2 54.0L219.6 54.4L220 54.9L220.1 75.4L220.2 95.8L221.6 95.9C222.3 96.0 223.1 96.3 223.3 96.5C223.6 96.8 223.9 97.0 224.2 97.0C224.4 97.0 225.2 97.4 226 97.8C226.8 98.3 227.7 98.7 228 98.9C228.3 99.0 228.7 99.2 229 99.4C229.3 99.5 229.7 99.7 229.8 99.8C230 99.9 230.4 100.0 230.7 100.1C230.9 100.2 231.6 100.6 232.2 101.0C232.7 101.4 233.4 101.7 233.7 101.9C233.9 102.0 234.4 102.2 234.7 102.4C234.9 102.5 235.4 102.8 235.7 102.9C235.9 103.0 236.4 103.2 236.7 103.4C236.9 103.5 237.4 103.8 237.7 103.9C239.3 104.6 243 106.5 243.2 106.7C243.3 106.9 243.7 107.0 244.2 107.0C244.6 107.0 245 107.1 245 107.3C245 107.4 245.8 107.9 246.8 108.3C249.5 109.5 252.8 111.0 253.3 111.4C253.6 111.5 254.6 112.0 255.5 112.5C256.5 112.9 257.4 113.5 257.7 113.8C257.9 114.1 258.6 114.6 259.3 114.8C260.5 115.4 260.6 116.1 259.4 116.3C258.9 116.3 258.3 116.1 257.8 115.6L257 114.9L256.4 115.4L255.8 116.0L254.3 116.0L252.7 116.0L252.3 116.5L251.9 117.0L248 117.0L244.1 117.0L243.7 116.5C243.5 116.3 242.6 116.0 241.7 115.9C240.9 115.9 240.2 115.7 240.2 115.5L240.2 115.2L248.1 115.1L256.1 115.0L255.9 114.6C255.8 114.4 255.5 114.1 255.1 114.1C254.7 114.0 254.2 113.7 254 113.5C253.8 113.2 253.3 113.0 253 113.0C252.7 113.0 252.2 112.8 252 112.5C251.8 112.2 251.3 112.0 251 112.0C250.7 112.0 250.2 111.8 250 111.5C249.8 111.2 249.3 111.0 249 111.0C248.7 111.0 248.2 110.8 248 110.5C247.8 110.2 247.3 110.0 247 110.0C246.7 110.0 246.2 109.8 246 109.5C245.8 109.2 245.3 109.0 245 109.0C244.7 109.0 244.2 108.8 244 108.5C243.8 108.2 243.3 108.0 243 108.0C242.7 108.0 242.2 107.8 242 107.5C241.8 107.2 241.3 107.0 241 107.0C240.7 107.0 240.2 106.8 240 106.5C239.8 106.2 239.3 106.0 239 106.0C238.7 106.0 238.2 105.8 238 105.5C237.8 105.2 237.3 105.0 237 105.0C236.7 105.0 236.2 104.8 235.9 104.5C235.5 104.2 234.9 104.0 234.6 104.0C234.3 104.0 234 103.9 233.9 103.7C233.8 103.4 231.1 102.0 230.6 102.0C230.4 102.0 229.6 101.6 228.8 101.0C228 100.5 227.1 100.0 226.9 100.0C226.6 100.0 226.2 99.8 226 99.5C225.8 99.2 225.2 99.0 224.8 99.0C224.4 99.0 223.9 98.8 223.7 98.5C223.4 98.2 222.9 98.0 222.5 98.0C222.1 98.0 221.6 97.8 221.5 97.7C221.4 97.5 221 97.3 220.6 97.3L220 97.3L220.1 106.1L220.2 114.8L222.1 114.9L224 115.0L224 115.5C224 116.2 222.9 116.9 221.5 117.1L220.2 117.2L220 130.0L219.8 142.8L219 142.8L218.2 142.8L218.1 140.4C218 139.1 217.8 138.0 217.7 138.0C217.5 138.0 216.3 139.1 215.1 140.5C212.6 143.1 212.6 143.1 212.2 142.8ZM228.6 116.4C228.2 116.1 228 115.6 228 115.4L228 115.0L232 115.0L236 115.0L236 115.4C236 115.7 235.7 116.1 235.4 116.4L234.8 117.0L231.9 117.0L229.1 117.0L228.6 116.4ZM209 63.7C209 63.0 212.9 59.0 213.6 59.0C214.3 59.0 214.1 59.5 213 60.3C212.5 60.8 212 61.5 212 61.9C212 63.1 209 64.9 209 63.7Z"/></svg>